M48
; DRILL file KiCad 10.0.3 date 2026-06-12T10:11:35
; FORMAT={-:-/ absolute / metric / decimal}
; #@! TF.CreationDate,2026-06-12T10:11:35+05:30
; #@! TF.GenerationSoftware,Kicad,Pcbnew,10.0.3
; #@! TF.FileFunction,Plated,1,2,PTH
FMAT,2
METRIC
; #@! TA.AperFunction,Plated,PTH,ComponentDrill
T1C0.800
; #@! TA.AperFunction,Plated,PTH,ComponentDrill
T2C0.900
; #@! TA.AperFunction,Plated,PTH,ComponentDrill
T3C1.300
%
G90
G05
T1
X69.38Y-57.88
X69.5Y-61.5
X77.0Y-57.88
X77.12Y-61.5
X80.695Y-58.19
X80.695Y-60.73
X80.695Y-63.27
X80.695Y-65.81
X81.545Y-71.75
X83.545Y-71.75
X88.315Y-58.19
X88.315Y-60.73
X88.315Y-63.27
X88.315Y-65.81
X91.38Y-57.96
X91.38Y-60.5
X91.38Y-63.04
X91.38Y-65.58
X91.38Y-68.12
X91.38Y-70.66
X91.38Y-73.2
X91.38Y-75.74
X99.0Y-57.96
X99.0Y-60.5
X99.0Y-63.04
X99.0Y-65.58
X99.0Y-68.12
X99.0Y-70.66
X99.0Y-73.2
X99.0Y-75.74
X102.57Y-66.0
X102.57Y-69.5
X102.57Y-73.0
X102.57Y-76.5
X102.69Y-62.5
X110.19Y-66.0
X110.19Y-69.5
X110.19Y-73.0
X110.19Y-76.5
X110.31Y-62.5
T2
X107.23Y-58.5
X109.77Y-58.5
X113.23Y-61.7
X113.23Y-66.5
X113.23Y-71.3
X113.23Y-76.1
X115.77Y-61.7
X115.77Y-66.5
X115.77Y-71.3
X115.77Y-76.1
T3
X73.0Y-67.955
X73.0Y-73.035
M30
