%TF.GenerationSoftware,KiCad,Pcbnew,10.0.3*%
%TF.CreationDate,2026-06-12T10:11:28+05:30*%
%TF.ProjectId,555_sequence_led,3535355f-7365-4717-9565-6e63655f6c65,rev?*%
%TF.SameCoordinates,Original*%
%TF.FileFunction,Paste,Top*%
%TF.FilePolarity,Positive*%
%FSLAX46Y46*%
G04 Gerber Fmt 4.6, Leading zero omitted, Abs format (unit mm)*
G04 Created by KiCad (PCBNEW 10.0.3) date 2026-06-12 10:11:28*
%MOMM*%
%LPD*%
G01*
G04 APERTURE LIST*
G04 Aperture macros list*
%AMRoundRect*
0 Rectangle with rounded corners*
0 $1 Rounding radius*
0 $2 $3 $4 $5 $6 $7 $8 $9 X,Y pos of 4 corners*
0 Add a 4 corners polygon primitive as box body*
4,1,4,$2,$3,$4,$5,$6,$7,$8,$9,$2,$3,0*
0 Add four circle primitives for the rounded corners*
1,1,$1+$1,$2,$3*
1,1,$1+$1,$4,$5*
1,1,$1+$1,$6,$7*
1,1,$1+$1,$8,$9*
0 Add four rect primitives between the rounded corners*
20,1,$1+$1,$2,$3,$4,$5,0*
20,1,$1+$1,$4,$5,$6,$7,0*
20,1,$1+$1,$6,$7,$8,$9,0*
20,1,$1+$1,$8,$9,$2,$3,0*%
G04 Aperture macros list end*
%TA.AperFunction,Conductor*%
%ADD10C,0.100000*%
%TD*%
%TA.AperFunction,ComponentPad*%
%ADD11RoundRect,0.250000X-0.550000X-0.550000X0.550000X-0.550000X0.550000X0.550000X-0.550000X0.550000X0*%
%TD*%
%TA.AperFunction,ComponentPad*%
%ADD12C,1.600000*%
%TD*%
%TA.AperFunction,ComponentPad*%
%ADD13R,1.800000X1.800000*%
%TD*%
%TA.AperFunction,ComponentPad*%
%ADD14C,1.800000*%
%TD*%
%TA.AperFunction,ComponentPad*%
%ADD15RoundRect,0.250000X-1.050000X1.050000X-1.050000X-1.050000X1.050000X-1.050000X1.050000X1.050000X0*%
%TD*%
%TA.AperFunction,ComponentPad*%
%ADD16C,2.600000*%
%TD*%
%TA.AperFunction,ComponentPad*%
%ADD17RoundRect,0.250000X0.550000X0.550000X-0.550000X0.550000X-0.550000X-0.550000X0.550000X-0.550000X0*%
%TD*%
%TA.AperFunction,Conductor*%
%ADD18C,0.200000*%
%TD*%
%ADD19RoundRect,0.250000X-0.550000X-0.550000X0.550000X-0.550000X0.550000X0.550000X-0.550000X0.550000X0*%
%ADD20C,1.600000*%
%ADD21R,1.800000X1.800000*%
%ADD22C,1.800000*%
%ADD23RoundRect,0.250000X-1.050000X1.050000X-1.050000X-1.050000X1.050000X-1.050000X1.050000X1.050000X0*%
%ADD24C,2.600000*%
%ADD25RoundRect,0.250000X0.550000X0.550000X-0.550000X0.550000X-0.550000X-0.550000X0.550000X-0.550000X0*%
%ADD26C,0.120000*%
%ADD27C,0.050000*%
%ADD28C,0.150000*%
%ADD29C,0.100000*%
%TA.AperFunction,Profile*%
%ADD30C,0.050000*%
%TD*%
G04 APERTURE END LIST*
%TO.N,Net-(U1-THR)*%
D10*
X83000000Y-66000000D02*
X85500000Y-63500000D01*
%TO.N,+12V*%
X90000000Y-72500000D02*
X90000000Y-74500000D01*
%TO.N,Net-(U2-Q3)*%
X100000000Y-62000000D02*
X100500000Y-62500000D01*
%TO.N,Net-(U2-Q1)*%
X98500000Y-78000000D02*
X97500000Y-77000000D01*
%TO.N,+12V*%
X86500000Y-57000000D02*
X88000000Y-58000000D01*
%TO.N,Net-(U2-Q1)*%
X108000000Y-61000000D02*
X109000000Y-62000000D01*
%TO.N,Net-(U2-Q3)*%
X108000000Y-75000000D02*
X107000000Y-75500000D01*
%TO.N,Net-(U2-Q1)*%
X101000000Y-57500000D02*
X101000000Y-60000000D01*
%TO.N,Net-(U2-Q4)*%
X94500000Y-59000000D02*
X92500000Y-59000000D01*
%TO.N,+12V*%
X92000000Y-72000000D02*
X90500000Y-72000000D01*
X90000000Y-59000000D02*
X90000000Y-69000000D01*
%TO.N,Net-(U2-Q2)*%
X99000000Y-63500000D02*
X97500000Y-64500000D01*
%TO.N,Net-(U2-Q0)*%
X93000000Y-69000000D02*
X93500000Y-69500000D01*
%TO.N,Net-(U2-Q2)*%
X99000000Y-68000000D02*
X101000000Y-66000000D01*
%TO.N,Net-(U2-Q1)*%
X100000000Y-56500000D02*
X101000000Y-57500000D01*
%TO.N,Net-(U1-THR)*%
X80500000Y-60500000D02*
X79500000Y-61500000D01*
%TO.N,Net-(U2-Q4)*%
X107500000Y-76000000D02*
X108500000Y-75500000D01*
X100000000Y-59500000D02*
X100500000Y-60000000D01*
X98500000Y-59000000D02*
X100000000Y-59500000D01*
%TO.N,Net-(U2-Q1)*%
X97500000Y-74500000D02*
X99000000Y-73000000D01*
%TO.N,Net-(U2-Q4)*%
X91500000Y-60500000D02*
X92500000Y-59000000D01*
X100500000Y-61500000D02*
X102500000Y-62500000D01*
%TO.N,Net-(U1-Q)*%
X81000000Y-63500000D02*
X82500000Y-62000000D01*
%TO.N,Net-(U2-Q3)*%
X106500000Y-64000000D02*
X108000000Y-65000000D01*
%TO.N,Net-(U2-Q1)*%
X101000000Y-60000000D02*
X102000000Y-61000000D01*
%TO.N,Net-(U2-Q0)*%
X93500000Y-69500000D02*
X97500000Y-69500000D01*
%TO.N,Net-(U1-THR)*%
X85500000Y-63500000D02*
X88000000Y-63500000D01*
%TO.N,+12V*%
X79000000Y-57000000D02*
X86500000Y-57000000D01*
%TO.N,Net-(U2-Q1)*%
X102000000Y-61000000D02*
X108000000Y-61000000D01*
%TO.N,+12V*%
X92000000Y-69500000D02*
X92500000Y-70000000D01*
%TO.N,Net-(U2-Q0)*%
X102500000Y-66500000D02*
X99000000Y-70500000D01*
%TO.N,Net-(U2-Q2)*%
X106000000Y-64500000D02*
X107500000Y-65500000D01*
%TO.N,Net-(U2-Q4)*%
X103000000Y-78000000D02*
X102000000Y-78000000D01*
%TO.N,Net-(U2-Q2)*%
X107500000Y-65500000D02*
X107500000Y-71500000D01*
X101000000Y-65000000D02*
X101500000Y-64500000D01*
%TO.N,Net-(U2-Q1)*%
X92500000Y-56500000D02*
X100000000Y-56500000D01*
%TO.N,Net-(U2-Q3)*%
X108000000Y-65000000D02*
X108000000Y-75000000D01*
%TO.N,Net-(U2-Q2)*%
X97500000Y-64500000D02*
X97500000Y-66500000D01*
%TO.N,Net-(U2-Q4)*%
X104000000Y-77000000D02*
X104000000Y-76500000D01*
%TO.N,Net-(U2-Q2)*%
X104000000Y-72000000D02*
X102500000Y-73000000D01*
%TO.N,Net-(U1-Q)*%
X89000000Y-62000000D02*
X89500000Y-62500000D01*
%TO.N,Net-(D5-A)*%
X110000000Y-58500000D02*
X111000000Y-59000000D01*
%TO.N,Net-(U2-Q1)*%
X109000000Y-76000000D02*
X108000000Y-76500000D01*
%TO.N,+12V*%
X77000000Y-58000000D02*
X79000000Y-57000000D01*
X92500000Y-70000000D02*
X92500000Y-71500000D01*
%TO.N,Net-(U2-Q3)*%
X100000000Y-61500000D02*
X100000000Y-62000000D01*
%TO.N,Net-(U1-THR)*%
X79500000Y-61500000D02*
X79500000Y-70500000D01*
%TO.N,+12V*%
X92500000Y-71500000D02*
X92000000Y-72000000D01*
%TO.N,Net-(U2-Q4)*%
X102000000Y-78000000D02*
X99000000Y-76000000D01*
%TO.N,+12V*%
X90500000Y-72000000D02*
X90000000Y-72500000D01*
X90000000Y-74500000D02*
X91000000Y-75500000D01*
%TO.N,Net-(U2-Q4)*%
X94500000Y-59000000D02*
X98500000Y-59000000D01*
%TO.N,Net-(U2-Q3)*%
X107000000Y-75500000D02*
X103500000Y-75500000D01*
%TO.N,Net-(U1-DIS)*%
X87500000Y-59500000D02*
X88500000Y-60500000D01*
%TO.N,+12V*%
X90000000Y-69000000D02*
X91000000Y-69500000D01*
%TO.N,Net-(U2-Q1)*%
X91500000Y-57500000D02*
X92500000Y-56500000D01*
X109000000Y-62000000D02*
X109000000Y-76000000D01*
%TO.N,Net-(U2-Q2)*%
X101000000Y-66000000D02*
X101000000Y-65000000D01*
%TO.N,Net-(U2-Q4)*%
X108000000Y-62500000D02*
X108500000Y-63000000D01*
%TO.N,Net-(U2-Q3)*%
X100500000Y-64500000D02*
X99500000Y-65500000D01*
%TO.N,Net-(U2-Q4)*%
X103000000Y-78000000D02*
X104000000Y-77000000D01*
%TO.N,Net-(U1-Q)*%
X89500000Y-69500000D02*
X91000000Y-70500000D01*
%TO.N,Net-(U2-Q3)*%
X99000000Y-60500000D02*
X100000000Y-61500000D01*
%TO.N,Net-(U2-Q1)*%
X99000000Y-73000000D02*
X102500000Y-69500000D01*
%TO.N,Net-(U2-Q4)*%
X108500000Y-63000000D02*
X108500000Y-75500000D01*
%TO.N,Net-(U2-Q3)*%
X101000000Y-64000000D02*
X100500000Y-64500000D01*
%TO.N,Net-(U2-Q0)*%
X91500000Y-63000000D02*
X93000000Y-64000000D01*
%TO.N,Net-(D5-A)*%
X111000000Y-61000000D02*
X110500000Y-62000000D01*
%TO.N,Net-(U2-Q2)*%
X107500000Y-71500000D02*
X107000000Y-72000000D01*
%TO.N,Net-(U2-Q3)*%
X103500000Y-75500000D02*
X102500000Y-76500000D01*
%TO.N,Net-(U2-Q0)*%
X93000000Y-64000000D02*
X93000000Y-69000000D01*
%TO.N,Net-(U1-DIS)*%
X80000000Y-59500000D02*
X87500000Y-59500000D01*
%TO.N,Net-(U1-Q)*%
X82500000Y-62000000D02*
X89000000Y-62000000D01*
%TO.N,Net-(U2-Q4)*%
X102500000Y-62500000D02*
X108000000Y-62500000D01*
%TO.N,Net-(U2-Q1)*%
X108000000Y-76500000D02*
X105000000Y-76500000D01*
%TO.N,Net-(U2-Q4)*%
X100500000Y-60000000D02*
X100500000Y-61500000D01*
%TO.N,Net-(U2-Q3)*%
X101000000Y-64000000D02*
X106500000Y-64000000D01*
%TO.N,Net-(U1-Q)*%
X89500000Y-62500000D02*
X89500000Y-69500000D01*
%TO.N,Net-(U2-Q3)*%
X100500000Y-62500000D02*
X100500000Y-64500000D01*
%TO.N,Net-(U2-Q2)*%
X97500000Y-66500000D02*
X99000000Y-68000000D01*
%TO.N,Net-(D5-A)*%
X111000000Y-59000000D02*
X111000000Y-61000000D01*
%TO.N,+12V*%
X91000000Y-69500000D02*
X92000000Y-69500000D01*
X89000000Y-58000000D02*
X90000000Y-59000000D01*
%TO.N,Net-(U2-Q1)*%
X105000000Y-76500000D02*
X104500000Y-77000000D01*
%TO.N,Net-(U2-Q4)*%
X104000000Y-76500000D02*
X104500000Y-76000000D01*
%TO.N,Net-(U2-Q1)*%
X97500000Y-77000000D02*
X97500000Y-74500000D01*
%TO.N,Net-(U2-Q4)*%
X104500000Y-76000000D02*
X107500000Y-76000000D01*
%TO.N,Net-(U2-Q2)*%
X107000000Y-72000000D02*
X104000000Y-72000000D01*
X101500000Y-64500000D02*
X106000000Y-64500000D01*
%TD*%
D11*
%TO.P,U1,1,GND*%
%TO.N,GND*%
X80695000Y-58190000D03*
D12*
%TO.P,U1,2,TR*%
%TO.N,Net-(U1-THR)*%
X80695000Y-60730000D03*
%TO.P,U1,3,Q*%
%TO.N,Net-(U1-Q)*%
X80695000Y-63270000D03*
%TO.P,U1,4,R*%
%TO.N,unconnected-(U1-R-Pad4)*%
X80695000Y-65810000D03*
%TO.P,U1,5,CV*%
%TO.N,unconnected-(U1-CV-Pad5)*%
X88315000Y-65810000D03*
%TO.P,U1,6,THR*%
%TO.N,Net-(U1-THR)*%
X88315000Y-63270000D03*
%TO.P,U1,7,DIS*%
%TO.N,Net-(U1-DIS)*%
X88315000Y-60730000D03*
%TO.P,U1,8,VCC*%
%TO.N,+12V*%
X88315000Y-58190000D03*
%TD*%
D13*
%TO.P,D5,1,K*%
%TO.N,GND*%
X107230000Y-58500000D03*
D14*
%TO.P,D5,2,A*%
%TO.N,Net-(D5-A)*%
X109770000Y-58500000D03*
%TD*%
D13*
%TO.P,D2,1,K*%
%TO.N,GND*%
X115770000Y-66500000D03*
D14*
%TO.P,D2,2,A*%
%TO.N,Net-(D2-A)*%
X113230000Y-66500000D03*
%TD*%
D15*
%TO.P,J2,1,Pin_1*%
%TO.N,GND*%
X73000000Y-67955000D03*
D16*
%TO.P,J2,2,Pin_2*%
%TO.N,+12V*%
X73000000Y-73035000D03*
%TD*%
D12*
%TO.P,R7,1*%
%TO.N,Net-(U2-Q4)*%
X102690000Y-62500000D03*
%TO.P,R7,2*%
%TO.N,Net-(D5-A)*%
X110310000Y-62500000D03*
%TD*%
%TO.P,R5,1*%
%TO.N,Net-(U2-Q2)*%
X102570000Y-73000000D03*
%TO.P,R5,2*%
%TO.N,Net-(D3-A)*%
X110190000Y-73000000D03*
%TD*%
D13*
%TO.P,D3,1,K*%
%TO.N,GND*%
X115770000Y-71300000D03*
D14*
%TO.P,D3,2,A*%
%TO.N,Net-(D3-A)*%
X113230000Y-71300000D03*
%TD*%
D12*
%TO.P,R3,1*%
%TO.N,Net-(U2-Q0)*%
X102570000Y-66000000D03*
%TO.P,R3,2*%
%TO.N,Net-(D1-A)*%
X110190000Y-66000000D03*
%TD*%
%TO.P,R6,1*%
%TO.N,Net-(U2-Q3)*%
X102570000Y-76500000D03*
%TO.P,R6,2*%
%TO.N,Net-(D4-A)*%
X110190000Y-76500000D03*
%TD*%
D11*
%TO.P,C1,1*%
%TO.N,Net-(U1-THR)*%
X81544888Y-71750000D03*
D12*
%TO.P,C1,2*%
%TO.N,GND*%
X83544888Y-71750000D03*
%TD*%
D17*
%TO.P,U2,1,Q5*%
%TO.N,Net-(U2-Q4)*%
X99000000Y-75740000D03*
D12*
%TO.P,U2,2,Q1*%
%TO.N,Net-(U2-Q1)*%
X99000000Y-73200000D03*
%TO.P,U2,3,Q0*%
%TO.N,Net-(U2-Q0)*%
X99000000Y-70660000D03*
%TO.P,U2,4,Q2*%
%TO.N,Net-(U2-Q2)*%
X99000000Y-68120000D03*
%TO.P,U2,5,Q6*%
%TO.N,Net-(U2-Q3)*%
X99000000Y-65580000D03*
%TO.P,U2,6,Q7*%
%TO.N,Net-(U2-Q2)*%
X99000000Y-63040000D03*
%TO.P,U2,7,Q3*%
%TO.N,Net-(U2-Q3)*%
X99000000Y-60500000D03*
%TO.P,U2,8,VSS*%
%TO.N,GND*%
X99000000Y-57960000D03*
%TO.P,U2,9,Q8*%
%TO.N,Net-(U2-Q1)*%
X91380000Y-57960000D03*
%TO.P,U2,10,Q4*%
%TO.N,Net-(U2-Q4)*%
X91380000Y-60500000D03*
%TO.P,U2,11,Q9*%
%TO.N,Net-(U2-Q0)*%
X91380000Y-63040000D03*
%TO.P,U2,12,Cout*%
%TO.N,unconnected-(U2-Cout-Pad12)*%
X91380000Y-65580000D03*
%TO.P,U2,13,CKEN*%
%TO.N,unconnected-(U2-CKEN-Pad13)*%
X91380000Y-68120000D03*
%TO.P,U2,14,CLK*%
%TO.N,Net-(U1-Q)*%
X91380000Y-70660000D03*
%TO.P,U2,15,Reset*%
%TO.N,unconnected-(U2-Reset-Pad15)*%
X91380000Y-73200000D03*
%TO.P,U2,16,VDD*%
%TO.N,+12V*%
X91380000Y-75740000D03*
%TD*%
%TO.P,R2,1*%
%TO.N,Net-(U1-DIS)*%
X69500000Y-61500000D03*
%TO.P,R2,2*%
%TO.N,Net-(U1-THR)*%
X77120000Y-61500000D03*
%TD*%
%TO.P,R4,1*%
%TO.N,Net-(U2-Q1)*%
X102570000Y-69500000D03*
%TO.P,R4,2*%
%TO.N,Net-(D2-A)*%
X110190000Y-69500000D03*
%TD*%
D13*
%TO.P,D4,1,K*%
%TO.N,GND*%
X115770000Y-76100000D03*
D14*
%TO.P,D4,2,A*%
%TO.N,Net-(D4-A)*%
X113230000Y-76100000D03*
%TD*%
D13*
%TO.P,D1,1,K*%
%TO.N,GND*%
X115770000Y-61700000D03*
D14*
%TO.P,D1,2,A*%
%TO.N,Net-(D1-A)*%
X113230000Y-61700000D03*
%TD*%
D12*
%TO.P,R1,1*%
%TO.N,+12V*%
X77000000Y-57880000D03*
%TO.P,R1,2*%
%TO.N,Net-(U1-DIS)*%
X69380000Y-57880000D03*
%TD*%
%TO.N,Net-(U1-THR)*%
D10*
X81544888Y-67455112D02*
X83000000Y-66000000D01*
X80750000Y-71750000D02*
X79500000Y-70500000D01*
D18*
X81544888Y-71750000D02*
X80750000Y-71750000D01*
D10*
X81544888Y-71750000D02*
X81544888Y-67455112D01*
X77120000Y-61500000D02*
X79500000Y-61500000D01*
%TO.N,GND*%
X81500000Y-74000000D02*
X81500000Y-73794888D01*
X115770000Y-57270000D02*
X114700000Y-56200000D01*
X76201000Y-56200000D02*
X88062950Y-56200000D01*
X68000000Y-62955000D02*
X73000000Y-67955000D01*
X93012926Y-57960000D02*
X99000000Y-57960000D01*
X75601000Y-56800000D02*
X76201000Y-56200000D01*
X88062950Y-56200000D02*
X91062950Y-59200000D01*
X73000000Y-67955000D02*
X79045000Y-74000000D01*
X68500000Y-56000000D02*
X68000000Y-56500000D01*
X75601000Y-56800000D02*
X70800000Y-56800000D01*
X115770000Y-71300000D02*
X115770000Y-66500000D01*
X88262950Y-56000000D02*
X88062950Y-56200000D01*
X68000000Y-56500000D02*
X68000000Y-62955000D01*
X78100000Y-59100000D02*
X75900000Y-59100000D01*
X70800000Y-56800000D02*
X70000000Y-56000000D01*
X75601000Y-58801000D02*
X75601000Y-56800000D01*
X107230000Y-58500000D02*
X107230000Y-56130000D01*
X80695000Y-58190000D02*
X79010000Y-58190000D01*
X115770000Y-76100000D02*
X115770000Y-71300000D01*
X70000000Y-56000000D02*
X68500000Y-56000000D01*
X107100000Y-56000000D02*
X88262950Y-56000000D01*
X79045000Y-74000000D02*
X81500000Y-74000000D01*
X115770000Y-66500000D02*
X115770000Y-61700000D01*
X114700000Y-56200000D02*
X107300000Y-56200000D01*
X81500000Y-73794888D02*
X83544888Y-71750000D01*
X115770000Y-61700000D02*
X115770000Y-57270000D01*
X107300000Y-56200000D02*
X107230000Y-56270000D01*
X75900000Y-59100000D02*
X75601000Y-58801000D01*
X91062950Y-59200000D02*
X91772926Y-59200000D01*
X91772926Y-59200000D02*
X93012926Y-57960000D01*
X79010000Y-58190000D02*
X78100000Y-59100000D01*
X107230000Y-56270000D02*
X107230000Y-58500000D01*
X107230000Y-56130000D02*
X107100000Y-56000000D01*
%TO.N,Net-(D1-A)*%
X110190000Y-66000000D02*
X110190000Y-64740000D01*
X110190000Y-64740000D02*
X113230000Y-61700000D01*
%TO.N,Net-(D2-A)*%
D18*
X113190000Y-66500000D02*
X113230000Y-66500000D01*
D10*
X110190000Y-69500000D02*
X113190000Y-66500000D01*
%TO.N,Net-(D3-A)*%
X111530000Y-73000000D02*
X113230000Y-71300000D01*
X110190000Y-73000000D02*
X111530000Y-73000000D01*
%TO.N,Net-(D4-A)*%
X110190000Y-76500000D02*
X112830000Y-76500000D01*
D18*
X112830000Y-76500000D02*
X113230000Y-76100000D01*
%TO.N,+12V*%
D10*
X75705000Y-75740000D02*
X91380000Y-75740000D01*
X73000000Y-73035000D02*
X75705000Y-75740000D01*
%TO.N,Net-(U1-DIS)*%
X69500000Y-61500000D02*
X74500000Y-61500000D01*
X74500000Y-61500000D02*
X76000000Y-60000000D01*
X79500000Y-60000000D02*
X80000000Y-59500000D01*
X69380000Y-61380000D02*
X69500000Y-61500000D01*
X69380000Y-57880000D02*
X69380000Y-61380000D01*
X76000000Y-60000000D02*
X79500000Y-60000000D01*
%TO.N,Net-(U2-Q2)*%
D18*
X99000000Y-68630000D02*
X99000000Y-68120000D01*
%TO.N,Net-(U2-Q1)*%
X102570000Y-69500000D02*
X102570000Y-69373612D01*
D10*
X104500000Y-77000000D02*
X103149000Y-78351000D01*
X103149000Y-78351000D02*
X98851000Y-78351000D01*
X98851000Y-78351000D02*
X98500000Y-78000000D01*
%TO.N,Net-(U2-Q0)*%
X97500000Y-69500000D02*
X97840000Y-69500000D01*
X97840000Y-69500000D02*
X99000000Y-70660000D01*
%TD*%
%TA.AperFunction,Conductor*%
%TO.N,GND*%
G36*
X117592539Y-55520185D02*
G01*
X117638294Y-55572989D01*
X117649500Y-55624500D01*
X117649500Y-78375500D01*
X117629815Y-78442539D01*
X117577011Y-78488294D01*
X117525500Y-78499500D01*
X104078387Y-78499500D01*
X104011348Y-78479815D01*
X103965593Y-78427011D01*
X103955649Y-78357853D01*
X103984674Y-78294297D01*
X103990706Y-78287819D01*
X104226532Y-78051991D01*
X104827805Y-77450717D01*
X104827810Y-77450714D01*
X104838013Y-77440510D01*
X104838015Y-77440510D01*
X105191706Y-77086819D01*
X105253029Y-77053334D01*
X105279387Y-77050500D01*
X107983501Y-77050500D01*
X108039361Y-77053853D01*
X108055746Y-77050500D01*
X108072475Y-77050500D01*
X108126536Y-77036014D01*
X108181367Y-77024794D01*
X108196328Y-77017313D01*
X108212485Y-77012984D01*
X108257760Y-76986843D01*
X108264266Y-76983343D01*
X108750783Y-76740084D01*
X108819547Y-76727710D01*
X108884086Y-76754478D01*
X108923908Y-76811888D01*
X108924167Y-76812675D01*
X108984781Y-76999223D01*
X109039887Y-77107372D01*
X109070904Y-77168247D01*
X109077715Y-77181613D01*
X109198028Y-77347213D01*
X109342786Y-77491971D01*
X109454764Y-77573326D01*
X109508390Y-77612287D01*
X109624607Y-77671503D01*
X109690776Y-77705218D01*
X109690778Y-77705218D01*
X109690781Y-77705220D01*
X109795137Y-77739127D01*
X109885465Y-77768477D01*
X109963364Y-77780815D01*
X110087648Y-77800500D01*
X110087649Y-77800500D01*
X110292351Y-77800500D01*
X110292352Y-77800500D01*
X110494534Y-77768477D01*
X110689219Y-77705220D01*
X110871610Y-77612287D01*
X110964590Y-77544732D01*
X111037213Y-77491971D01*
X111037215Y-77491968D01*
X111037219Y-77491966D01*
X111181966Y-77347219D01*
X111181968Y-77347215D01*
X111181971Y-77347213D01*
X111279855Y-77212485D01*
X111302287Y-77181610D01*
X111334593Y-77118205D01*
X111382567Y-77067409D01*
X111445078Y-77050500D01*
X112148531Y-77050500D01*
X112215570Y-77070185D01*
X112236212Y-77086819D01*
X112317636Y-77168243D01*
X112317641Y-77168247D01*
X112433166Y-77252180D01*
X112495978Y-77297815D01*
X112592926Y-77347213D01*
X112692393Y-77397895D01*
X112692396Y-77397896D01*
X112797221Y-77431955D01*
X112902049Y-77466015D01*
X113119778Y-77500500D01*
X113119779Y-77500500D01*
X113340221Y-77500500D01*
X113340222Y-77500500D01*
X113557951Y-77466015D01*
X113767606Y-77397895D01*
X113964022Y-77297815D01*
X114142365Y-77168242D01*
X114192924Y-77117682D01*
X114254245Y-77084198D01*
X114323936Y-77089182D01*
X114379870Y-77131053D01*
X114396786Y-77162030D01*
X114426646Y-77242087D01*
X114426649Y-77242093D01*
X114512809Y-77357187D01*
X114512812Y-77357190D01*
X114627906Y-77443350D01*
X114627913Y-77443354D01*
X114762620Y-77493596D01*
X114762627Y-77493598D01*
X114822155Y-77499999D01*
X114822172Y-77500000D01*
X115520000Y-77500000D01*
X115520000Y-76475277D01*
X115596306Y-76519333D01*
X115710756Y-76550000D01*
X115829244Y-76550000D01*
X115943694Y-76519333D01*
X116020000Y-76475277D01*
X116020000Y-77500000D01*
X116717828Y-77500000D01*
X116717844Y-77499999D01*
X116777372Y-77493598D01*
X116777379Y-77493596D01*
X116912086Y-77443354D01*
X116912093Y-77443350D01*
X117027187Y-77357190D01*
X117027190Y-77357187D01*
X117113350Y-77242093D01*
X117113354Y-77242086D01*
X117163596Y-77107379D01*
X117163598Y-77107372D01*
X117169999Y-77047844D01*
X117170000Y-77047827D01*
X117170000Y-76350000D01*
X116145278Y-76350000D01*
X116189333Y-76273694D01*
X116220000Y-76159244D01*
X116220000Y-76040756D01*
X116189333Y-75926306D01*
X116145278Y-75850000D01*
X117170000Y-75850000D01*
X117170000Y-75152172D01*
X117169999Y-75152155D01*
X117163598Y-75092627D01*
X117163596Y-75092620D01*
X117113354Y-74957913D01*
X117113350Y-74957906D01*
X117027190Y-74842812D01*
X117027187Y-74842809D01*
X116912093Y-74756649D01*
X116912086Y-74756645D01*
X116777379Y-74706403D01*
X116777372Y-74706401D01*
X116717844Y-74700000D01*
X116020000Y-74700000D01*
X116020000Y-75724722D01*
X115943694Y-75680667D01*
X115829244Y-75650000D01*
X115710756Y-75650000D01*
X115596306Y-75680667D01*
X115520000Y-75724722D01*
X115520000Y-74700000D01*
X114822155Y-74700000D01*
X114762627Y-74706401D01*
X114762620Y-74706403D01*
X114627913Y-74756645D01*
X114627906Y-74756649D01*
X114512812Y-74842809D01*
X114512809Y-74842812D01*
X114426649Y-74957906D01*
X114426643Y-74957918D01*
X114396785Y-75037969D01*
X114354914Y-75093903D01*
X114289449Y-75118319D01*
X114221176Y-75103467D01*
X114192923Y-75082316D01*
X114142363Y-75031756D01*
X114142358Y-75031752D01*
X113964025Y-74902187D01*
X113964024Y-74902186D01*
X113964022Y-74902185D01*
X113901096Y-74870122D01*
X113767606Y-74802104D01*
X113767603Y-74802103D01*
X113557952Y-74733985D01*
X113422206Y-74712485D01*
X113340222Y-74699500D01*
X113119778Y-74699500D01*
X113047201Y-74710995D01*
X112902047Y-74733985D01*
X112692396Y-74802103D01*
X112692393Y-74802104D01*
X112495974Y-74902187D01*
X112317641Y-75031752D01*
X112317636Y-75031756D01*
X112161756Y-75187636D01*
X112161752Y-75187641D01*
X112032187Y-75365974D01*
X111932104Y-75562393D01*
X111932103Y-75562396D01*
X111863984Y-75772048D01*
X111852447Y-75844897D01*
X111822518Y-75908032D01*
X111763207Y-75944964D01*
X111729974Y-75949500D01*
X111445078Y-75949500D01*
X111378039Y-75929815D01*
X111334593Y-75881794D01*
X111302286Y-75818388D01*
X111181971Y-75652786D01*
X111037213Y-75508028D01*
X110871613Y-75387715D01*
X110871612Y-75387714D01*
X110871610Y-75387713D01*
X110814653Y-75358691D01*
X110689223Y-75294781D01*
X110494534Y-75231522D01*
X110319995Y-75203878D01*
X110292352Y-75199500D01*
X110087648Y-75199500D01*
X110045997Y-75206097D01*
X109885464Y-75231523D01*
X109885461Y-75231523D01*
X109712818Y-75287619D01*
X109642977Y-75289614D01*
X109583144Y-75253534D01*
X109552316Y-75190833D01*
X109550500Y-75169688D01*
X109550500Y-74330311D01*
X109570185Y-74263272D01*
X109622989Y-74217517D01*
X109692147Y-74207573D01*
X109712812Y-74212378D01*
X109823562Y-74248363D01*
X109885465Y-74268477D01*
X109986557Y-74284488D01*
X110087648Y-74300500D01*
X110087649Y-74300500D01*
X110292351Y-74300500D01*
X110292352Y-74300500D01*
X110494534Y-74268477D01*
X110689219Y-74205220D01*
X110871610Y-74112287D01*
X110974615Y-74037450D01*
X111037213Y-73991971D01*
X111037215Y-73991968D01*
X111037219Y-73991966D01*
X111181966Y-73847219D01*
X111181968Y-73847215D01*
X111181971Y-73847213D01*
X111266298Y-73731144D01*
X111302287Y-73681610D01*
X111334593Y-73618205D01*
X111382567Y-73567409D01*
X111445078Y-73550500D01*
X111602472Y-73550500D01*
X111602474Y-73550500D01*
X111602475Y-73550500D01*
X111742485Y-73512984D01*
X111768011Y-73498246D01*
X111768013Y-73498246D01*
X111868008Y-73440514D01*
X111868007Y-73440514D01*
X111868015Y-73440510D01*
X112652428Y-72656095D01*
X112713749Y-72622612D01*
X112778421Y-72625846D01*
X112902049Y-72666015D01*
X113119778Y-72700500D01*
X113119779Y-72700500D01*
X113340221Y-72700500D01*
X113340222Y-72700500D01*
X113557951Y-72666015D01*
X113767606Y-72597895D01*
X113964022Y-72497815D01*
X114142365Y-72368242D01*
X114192924Y-72317682D01*
X114254245Y-72284198D01*
X114323936Y-72289182D01*
X114379870Y-72331053D01*
X114396786Y-72362030D01*
X114426646Y-72442087D01*
X114426649Y-72442093D01*
X114512809Y-72557187D01*
X114512812Y-72557190D01*
X114627906Y-72643350D01*
X114627913Y-72643354D01*
X114762620Y-72693596D01*
X114762627Y-72693598D01*
X114822155Y-72699999D01*
X114822172Y-72700000D01*
X115520000Y-72700000D01*
X115520000Y-71675277D01*
X115596306Y-71719333D01*
X115710756Y-71750000D01*
X115829244Y-71750000D01*
X115943694Y-71719333D01*
X116020000Y-71675277D01*
X116020000Y-72700000D01*
X116717828Y-72700000D01*
X116717844Y-72699999D01*
X116777372Y-72693598D01*
X116777379Y-72693596D01*
X116912086Y-72643354D01*
X116912093Y-72643350D01*
X117027187Y-72557190D01*
X117027190Y-72557187D01*
X117113350Y-72442093D01*
X117113354Y-72442086D01*
X117163596Y-72307379D01*
X117163598Y-72307372D01*
X117169999Y-72247844D01*
X117170000Y-72247827D01*
X117170000Y-71550000D01*
X116145278Y-71550000D01*
X116189333Y-71473694D01*
X116220000Y-71359244D01*
X116220000Y-71240756D01*
X116189333Y-71126306D01*
X116145278Y-71050000D01*
X117170000Y-71050000D01*
X117170000Y-70352172D01*
X117169999Y-70352155D01*
X117163598Y-70292627D01*
X117163596Y-70292620D01*
X117113354Y-70157913D01*
X117113350Y-70157906D01*
X117027190Y-70042812D01*
X117027187Y-70042809D01*
X116912093Y-69956649D01*
X116912086Y-69956645D01*
X116777379Y-69906403D01*
X116777372Y-69906401D01*
X116717844Y-69900000D01*
X116020000Y-69900000D01*
X116020000Y-70924722D01*
X115943694Y-70880667D01*
X115829244Y-70850000D01*
X115710756Y-70850000D01*
X115596306Y-70880667D01*
X115520000Y-70924722D01*
X115520000Y-69900000D01*
X114822155Y-69900000D01*
X114762627Y-69906401D01*
X114762620Y-69906403D01*
X114627913Y-69956645D01*
X114627906Y-69956649D01*
X114512812Y-70042809D01*
X114512809Y-70042812D01*
X114426649Y-70157906D01*
X114426643Y-70157918D01*
X114396785Y-70237969D01*
X114354914Y-70293903D01*
X114289449Y-70318319D01*
X114221176Y-70303467D01*
X114192923Y-70282316D01*
X114142363Y-70231756D01*
X114142358Y-70231752D01*
X113964025Y-70102187D01*
X113964024Y-70102186D01*
X113964022Y-70102185D01*
X113862586Y-70050500D01*
X113767606Y-70002104D01*
X113767603Y-70002103D01*
X113557952Y-69933985D01*
X113449086Y-69916742D01*
X113340222Y-69899500D01*
X113119778Y-69899500D01*
X113047201Y-69910995D01*
X112902047Y-69933985D01*
X112692396Y-70002103D01*
X112692393Y-70002104D01*
X112495974Y-70102187D01*
X112317641Y-70231752D01*
X112317636Y-70231756D01*
X112161756Y-70387636D01*
X112161752Y-70387641D01*
X112032187Y-70565974D01*
X111932104Y-70762393D01*
X111932103Y-70762396D01*
X111863985Y-70972047D01*
X111834340Y-71159219D01*
X111829500Y-71189778D01*
X111829500Y-71410222D01*
X111835163Y-71445977D01*
X111863985Y-71627954D01*
X111904151Y-71751574D01*
X111906146Y-71821415D01*
X111873901Y-71877572D01*
X111459988Y-72291485D01*
X111398665Y-72324970D01*
X111328973Y-72319986D01*
X111273040Y-72278114D01*
X111272051Y-72276774D01*
X111188654Y-72161986D01*
X111181969Y-72152784D01*
X111037213Y-72008028D01*
X110871613Y-71887715D01*
X110871612Y-71887714D01*
X110871610Y-71887713D01*
X110802142Y-71852317D01*
X110689223Y-71794781D01*
X110494534Y-71731522D01*
X110319995Y-71703878D01*
X110292352Y-71699500D01*
X110087648Y-71699500D01*
X110020254Y-71710174D01*
X109885464Y-71731523D01*
X109885461Y-71731523D01*
X109712818Y-71787619D01*
X109642977Y-71789614D01*
X109583144Y-71753534D01*
X109552316Y-71690833D01*
X109550500Y-71669688D01*
X109550500Y-70830311D01*
X109570185Y-70763272D01*
X109622989Y-70717517D01*
X109692147Y-70707573D01*
X109712812Y-70712378D01*
X109806373Y-70742778D01*
X109885465Y-70768477D01*
X109986557Y-70784488D01*
X110087648Y-70800500D01*
X110087649Y-70800500D01*
X110292351Y-70800500D01*
X110292352Y-70800500D01*
X110494534Y-70768477D01*
X110689219Y-70705220D01*
X110871610Y-70612287D01*
X110964590Y-70544732D01*
X111037213Y-70491971D01*
X111037215Y-70491968D01*
X111037219Y-70491966D01*
X111181966Y-70347219D01*
X111181968Y-70347215D01*
X111181971Y-70347213D01*
X111234732Y-70274590D01*
X111302287Y-70181610D01*
X111395220Y-69999219D01*
X111458477Y-69804534D01*
X111490500Y-69602352D01*
X111490500Y-69397648D01*
X111458477Y-69195466D01*
X111436485Y-69127785D01*
X111434491Y-69057945D01*
X111466734Y-69001789D01*
X112622236Y-67846286D01*
X112683557Y-67812803D01*
X112748233Y-67816038D01*
X112902049Y-67866015D01*
X113119778Y-67900500D01*
X113119779Y-67900500D01*
X113340221Y-67900500D01*
X113340222Y-67900500D01*
X113557951Y-67866015D01*
X113767606Y-67797895D01*
X113964022Y-67697815D01*
X114142365Y-67568242D01*
X114192924Y-67517682D01*
X114254245Y-67484198D01*
X114323936Y-67489182D01*
X114379870Y-67531053D01*
X114396786Y-67562030D01*
X114426646Y-67642087D01*
X114426649Y-67642093D01*
X114512809Y-67757187D01*
X114512812Y-67757190D01*
X114627906Y-67843350D01*
X114627913Y-67843354D01*
X114762620Y-67893596D01*
X114762627Y-67893598D01*
X114822155Y-67899999D01*
X114822172Y-67900000D01*
X115520000Y-67900000D01*
X115520000Y-66875277D01*
X115596306Y-66919333D01*
X115710756Y-66950000D01*
X115829244Y-66950000D01*
X115943694Y-66919333D01*
X116020000Y-66875277D01*
X116020000Y-67900000D01*
X116717828Y-67900000D01*
X116717844Y-67899999D01*
X116777372Y-67893598D01*
X116777379Y-67893596D01*
X116912086Y-67843354D01*
X116912093Y-67843350D01*
X117027187Y-67757190D01*
X117027190Y-67757187D01*
X117113350Y-67642093D01*
X117113354Y-67642086D01*
X117163596Y-67507379D01*
X117163598Y-67507372D01*
X117169999Y-67447844D01*
X117170000Y-67447827D01*
X117170000Y-66750000D01*
X116145278Y-66750000D01*
X116189333Y-66673694D01*
X116220000Y-66559244D01*
X116220000Y-66440756D01*
X116189333Y-66326306D01*
X116145278Y-66250000D01*
X117170000Y-66250000D01*
X117170000Y-65552172D01*
X117169999Y-65552155D01*
X117163598Y-65492627D01*
X117163596Y-65492620D01*
X117113354Y-65357913D01*
X117113350Y-65357906D01*
X117027190Y-65242812D01*
X117027187Y-65242809D01*
X116912093Y-65156649D01*
X116912086Y-65156645D01*
X116777379Y-65106403D01*
X116777372Y-65106401D01*
X116717844Y-65100000D01*
X116020000Y-65100000D01*
X116020000Y-66124722D01*
X115943694Y-66080667D01*
X115829244Y-66050000D01*
X115710756Y-66050000D01*
X115596306Y-66080667D01*
X115520000Y-66124722D01*
X115520000Y-65100000D01*
X114822155Y-65100000D01*
X114762627Y-65106401D01*
X114762620Y-65106403D01*
X114627913Y-65156645D01*
X114627906Y-65156649D01*
X114512812Y-65242809D01*
X114512809Y-65242812D01*
X114426649Y-65357906D01*
X114426643Y-65357918D01*
X114396785Y-65437969D01*
X114354914Y-65493903D01*
X114289449Y-65518319D01*
X114221176Y-65503467D01*
X114192923Y-65482316D01*
X114142363Y-65431756D01*
X114142358Y-65431752D01*
X113964025Y-65302187D01*
X113964024Y-65302186D01*
X113964022Y-65302185D01*
X113901096Y-65270122D01*
X113767606Y-65202104D01*
X113767603Y-65202103D01*
X113557952Y-65133985D01*
X113428772Y-65113525D01*
X113340222Y-65099500D01*
X113119778Y-65099500D01*
X113047201Y-65110995D01*
X112902047Y-65133985D01*
X112692396Y-65202103D01*
X112692393Y-65202104D01*
X112495974Y-65302187D01*
X112317641Y-65431752D01*
X112317636Y-65431756D01*
X112161756Y-65587636D01*
X112161752Y-65587641D01*
X112032187Y-65765974D01*
X111932104Y-65962393D01*
X111932103Y-65962396D01*
X111863985Y-66172047D01*
X111829500Y-66389778D01*
X111829500Y-66610221D01*
X111863985Y-66827954D01*
X111894342Y-66921384D01*
X111896337Y-66991225D01*
X111864092Y-67047382D01*
X110688211Y-68223262D01*
X110626888Y-68256747D01*
X110562212Y-68253512D01*
X110494537Y-68231523D01*
X110327077Y-68205000D01*
X110292352Y-68199500D01*
X110087648Y-68199500D01*
X110052923Y-68205000D01*
X109885464Y-68231523D01*
X109885461Y-68231523D01*
X109712818Y-68287619D01*
X109642977Y-68289614D01*
X109583144Y-68253534D01*
X109552316Y-68190833D01*
X109550500Y-68169688D01*
X109550500Y-67330311D01*
X109570185Y-67263272D01*
X109622989Y-67217517D01*
X109692147Y-67207573D01*
X109712812Y-67212378D01*
X109805908Y-67242627D01*
X109885465Y-67268477D01*
X109986557Y-67284488D01*
X110087648Y-67300500D01*
X110087649Y-67300500D01*
X110292351Y-67300500D01*
X110292352Y-67300500D01*
X110494534Y-67268477D01*
X110689219Y-67205220D01*
X110871610Y-67112287D01*
X110964590Y-67044732D01*
X111037213Y-66991971D01*
X111037215Y-66991968D01*
X111037219Y-66991966D01*
X111181966Y-66847219D01*
X111181968Y-66847215D01*
X111181971Y-66847213D01*
X111243737Y-66762198D01*
X111302287Y-66681610D01*
X111395220Y-66499219D01*
X111458477Y-66304534D01*
X111490500Y-66102352D01*
X111490500Y-65897648D01*
X111468351Y-65757806D01*
X111458477Y-65695465D01*
X111429127Y-65605137D01*
X111395220Y-65500781D01*
X111395218Y-65500778D01*
X111395218Y-65500776D01*
X111360048Y-65431752D01*
X111302287Y-65318390D01*
X111290515Y-65302187D01*
X111181971Y-65152786D01*
X111037219Y-65008034D01*
X110959645Y-64951674D01*
X110916979Y-64896344D01*
X110911000Y-64826731D01*
X110943605Y-64764935D01*
X110944775Y-64763748D01*
X112652428Y-63056095D01*
X112713749Y-63022612D01*
X112778421Y-63025846D01*
X112902049Y-63066015D01*
X113119778Y-63100500D01*
X113119779Y-63100500D01*
X113340221Y-63100500D01*
X113340222Y-63100500D01*
X113557951Y-63066015D01*
X113767606Y-62997895D01*
X113964022Y-62897815D01*
X114142365Y-62768242D01*
X114192924Y-62717682D01*
X114254245Y-62684198D01*
X114323936Y-62689182D01*
X114379870Y-62731053D01*
X114396786Y-62762030D01*
X114426646Y-62842087D01*
X114426649Y-62842093D01*
X114512809Y-62957187D01*
X114512812Y-62957190D01*
X114627906Y-63043350D01*
X114627913Y-63043354D01*
X114762620Y-63093596D01*
X114762627Y-63093598D01*
X114822155Y-63099999D01*
X114822172Y-63100000D01*
X115520000Y-63100000D01*
X115520000Y-62075277D01*
X115596306Y-62119333D01*
X115710756Y-62150000D01*
X115829244Y-62150000D01*
X115943694Y-62119333D01*
X116020000Y-62075277D01*
X116020000Y-63100000D01*
X116717828Y-63100000D01*
X116717844Y-63099999D01*
X116777372Y-63093598D01*
X116777379Y-63093596D01*
X116912086Y-63043354D01*
X116912093Y-63043350D01*
X117027187Y-62957190D01*
X117027190Y-62957187D01*
X117113350Y-62842093D01*
X117113354Y-62842086D01*
X117163596Y-62707379D01*
X117163598Y-62707372D01*
X117169999Y-62647844D01*
X117170000Y-62647827D01*
X117170000Y-61950000D01*
X116145278Y-61950000D01*
X116189333Y-61873694D01*
X116220000Y-61759244D01*
X116220000Y-61640756D01*
X116189333Y-61526306D01*
X116145278Y-61450000D01*
X117170000Y-61450000D01*
X117170000Y-60752172D01*
X117169999Y-60752155D01*
X117163598Y-60692627D01*
X117163596Y-60692620D01*
X117113354Y-60557913D01*
X117113350Y-60557906D01*
X117027190Y-60442812D01*
X117027187Y-60442809D01*
X116912093Y-60356649D01*
X116912086Y-60356645D01*
X116777379Y-60306403D01*
X116777372Y-60306401D01*
X116717844Y-60300000D01*
X116020000Y-60300000D01*
X116020000Y-61324722D01*
X115943694Y-61280667D01*
X115829244Y-61250000D01*
X115710756Y-61250000D01*
X115596306Y-61280667D01*
X115520000Y-61324722D01*
X115520000Y-60300000D01*
X114822155Y-60300000D01*
X114762627Y-60306401D01*
X114762620Y-60306403D01*
X114627913Y-60356645D01*
X114627906Y-60356649D01*
X114512812Y-60442809D01*
X114512809Y-60442812D01*
X114426649Y-60557906D01*
X114426643Y-60557918D01*
X114396785Y-60637969D01*
X114354914Y-60693903D01*
X114289449Y-60718319D01*
X114221176Y-60703467D01*
X114192923Y-60682316D01*
X114142363Y-60631756D01*
X114142358Y-60631752D01*
X113964025Y-60502187D01*
X113964024Y-60502186D01*
X113964022Y-60502185D01*
X113901096Y-60470122D01*
X113767606Y-60402104D01*
X113767603Y-60402103D01*
X113557952Y-60333985D01*
X113447297Y-60316459D01*
X113340222Y-60299500D01*
X113119778Y-60299500D01*
X113047201Y-60310995D01*
X112902047Y-60333985D01*
X112692396Y-60402103D01*
X112692393Y-60402104D01*
X112495974Y-60502187D01*
X112317641Y-60631752D01*
X112317636Y-60631756D01*
X112161756Y-60787636D01*
X112161752Y-60787641D01*
X112032187Y-60965974D01*
X111932104Y-61162393D01*
X111932103Y-61162396D01*
X111863985Y-61372047D01*
X111829500Y-61589778D01*
X111829500Y-61810221D01*
X111863985Y-62027954D01*
X111904151Y-62151574D01*
X111904585Y-62166784D01*
X111909904Y-62181044D01*
X111905562Y-62201001D01*
X111906146Y-62221415D01*
X111898058Y-62235500D01*
X111895053Y-62249317D01*
X111873901Y-62277572D01*
X111802179Y-62349294D01*
X111740858Y-62382779D01*
X111671166Y-62377795D01*
X111615232Y-62335924D01*
X111592026Y-62281011D01*
X111578477Y-62195466D01*
X111515220Y-62000781D01*
X111515218Y-62000778D01*
X111515218Y-62000776D01*
X111453926Y-61880485D01*
X111422287Y-61818390D01*
X111390989Y-61775311D01*
X111338621Y-61703232D01*
X111315141Y-61637426D01*
X111328029Y-61574895D01*
X111485001Y-61260951D01*
X111512984Y-61212485D01*
X111517313Y-61196328D01*
X111524794Y-61181367D01*
X111535272Y-61130161D01*
X111536977Y-61122942D01*
X111538346Y-61117833D01*
X111550500Y-61072475D01*
X111550500Y-61055746D01*
X111553853Y-61039361D01*
X111550500Y-60983501D01*
X111550500Y-59068302D01*
X111553018Y-59043439D01*
X111553853Y-59039361D01*
X111550723Y-58987216D01*
X111550500Y-58979786D01*
X111550500Y-58927527D01*
X111550500Y-58927525D01*
X111546170Y-58911365D01*
X111545168Y-58894672D01*
X111527472Y-58841584D01*
X111512984Y-58787515D01*
X111510897Y-58783900D01*
X111510897Y-58783899D01*
X111504617Y-58773023D01*
X111499331Y-58757162D01*
X111468494Y-58710457D01*
X111440509Y-58661985D01*
X111437563Y-58659039D01*
X111421762Y-58639677D01*
X111419465Y-58636198D01*
X111380365Y-58601526D01*
X111377583Y-58599059D01*
X111338015Y-58559491D01*
X111323531Y-58551128D01*
X111311015Y-58540030D01*
X111311013Y-58540029D01*
X111311011Y-58540027D01*
X111264277Y-58516661D01*
X111257748Y-58513149D01*
X111232496Y-58498569D01*
X111184283Y-58448001D01*
X111171330Y-58394605D01*
X111170883Y-58394641D01*
X111170663Y-58391860D01*
X111170500Y-58391184D01*
X111170500Y-58389778D01*
X111153125Y-58280080D01*
X111136015Y-58172049D01*
X111100361Y-58062317D01*
X111067896Y-57962396D01*
X111067895Y-57962393D01*
X111033237Y-57894375D01*
X110967815Y-57765978D01*
X110930337Y-57714394D01*
X110838247Y-57587641D01*
X110838243Y-57587636D01*
X110682363Y-57431756D01*
X110682358Y-57431752D01*
X110504025Y-57302187D01*
X110504024Y-57302186D01*
X110504022Y-57302185D01*
X110441096Y-57270122D01*
X110307606Y-57202104D01*
X110307603Y-57202103D01*
X110097952Y-57133985D01*
X109964106Y-57112786D01*
X109880222Y-57099500D01*
X109659778Y-57099500D01*
X109587201Y-57110995D01*
X109442047Y-57133985D01*
X109232396Y-57202103D01*
X109232393Y-57202104D01*
X109035974Y-57302187D01*
X108857641Y-57431752D01*
X108857636Y-57431756D01*
X108807075Y-57482317D01*
X108745752Y-57515801D01*
X108676060Y-57510816D01*
X108620127Y-57468945D01*
X108603213Y-57437968D01*
X108573354Y-57357913D01*
X108573350Y-57357906D01*
X108487190Y-57242812D01*
X108487187Y-57242809D01*
X108372093Y-57156649D01*
X108372086Y-57156645D01*
X108237379Y-57106403D01*
X108237372Y-57106401D01*
X108177844Y-57100000D01*
X107480000Y-57100000D01*
X107480000Y-58124722D01*
X107403694Y-58080667D01*
X107289244Y-58050000D01*
X107170756Y-58050000D01*
X107056306Y-58080667D01*
X106980000Y-58124722D01*
X106980000Y-57100000D01*
X106282155Y-57100000D01*
X106222627Y-57106401D01*
X106222620Y-57106403D01*
X106087913Y-57156645D01*
X106087906Y-57156649D01*
X105972812Y-57242809D01*
X105972809Y-57242812D01*
X105886649Y-57357906D01*
X105886645Y-57357913D01*
X105836403Y-57492620D01*
X105836401Y-57492627D01*
X105830000Y-57552155D01*
X105830000Y-58250000D01*
X106854722Y-58250000D01*
X106810667Y-58326306D01*
X106780000Y-58440756D01*
X106780000Y-58559244D01*
X106810667Y-58673694D01*
X106854722Y-58750000D01*
X105830000Y-58750000D01*
X105830000Y-59447844D01*
X105836401Y-59507372D01*
X105836403Y-59507379D01*
X105886645Y-59642086D01*
X105886649Y-59642093D01*
X105972809Y-59757187D01*
X105972812Y-59757190D01*
X106087906Y-59843350D01*
X106087913Y-59843354D01*
X106222620Y-59893596D01*
X106222627Y-59893598D01*
X106282155Y-59899999D01*
X106282172Y-59900000D01*
X106980000Y-59900000D01*
X106980000Y-58875277D01*
X107056306Y-58919333D01*
X107170756Y-58950000D01*
X107289244Y-58950000D01*
X107403694Y-58919333D01*
X107480000Y-58875277D01*
X107480000Y-59900000D01*
X108177828Y-59900000D01*
X108177844Y-59899999D01*
X108237372Y-59893598D01*
X108237379Y-59893596D01*
X108372086Y-59843354D01*
X108372093Y-59843350D01*
X108487187Y-59757190D01*
X108487190Y-59757187D01*
X108573350Y-59642093D01*
X108573354Y-59642086D01*
X108603213Y-59562031D01*
X108645084Y-59506097D01*
X108710548Y-59481680D01*
X108778821Y-59496531D01*
X108807076Y-59517683D01*
X108857636Y-59568243D01*
X108857641Y-59568247D01*
X108996838Y-59669378D01*
X109035978Y-59697815D01*
X109133264Y-59747385D01*
X109232393Y-59797895D01*
X109232396Y-59797896D01*
X109295472Y-59818390D01*
X109442049Y-59866015D01*
X109659778Y-59900500D01*
X109659779Y-59900500D01*
X109880221Y-59900500D01*
X109880222Y-59900500D01*
X110097951Y-59866015D01*
X110287182Y-59804530D01*
X110357023Y-59802536D01*
X110416856Y-59838617D01*
X110447684Y-59901318D01*
X110449500Y-59922462D01*
X110449500Y-60840771D01*
X110436409Y-60896225D01*
X110319045Y-61130954D01*
X110271458Y-61182113D01*
X110212447Y-61198316D01*
X110212511Y-61199117D01*
X110208332Y-61199446D01*
X110208136Y-61199500D01*
X110207648Y-61199500D01*
X110183329Y-61203351D01*
X110005465Y-61231522D01*
X109810776Y-61294781D01*
X109628386Y-61387715D01*
X109462781Y-61508033D01*
X109462776Y-61508037D01*
X109462339Y-61508475D01*
X109462131Y-61508588D01*
X109459071Y-61511202D01*
X109458521Y-61510558D01*
X109401011Y-61541952D01*
X109331320Y-61536958D01*
X109286988Y-61508463D01*
X108338016Y-60559491D01*
X108338015Y-60559490D01*
X108212485Y-60487016D01*
X108212480Y-60487014D01*
X108168411Y-60475205D01*
X108168411Y-60475206D01*
X108120442Y-60462353D01*
X108072475Y-60449500D01*
X108072474Y-60449500D01*
X102279386Y-60449500D01*
X102212347Y-60429815D01*
X102191705Y-60413181D01*
X101586819Y-59808294D01*
X101553334Y-59746971D01*
X101550500Y-59720613D01*
X101550500Y-57427527D01*
X101550500Y-57427525D01*
X101512984Y-57287515D01*
X101487190Y-57242838D01*
X101440510Y-57161986D01*
X100338015Y-56059490D01*
X100212485Y-55987016D01*
X100212486Y-55987016D01*
X100177482Y-55977637D01*
X100072475Y-55949500D01*
X92427525Y-55949500D01*
X92343519Y-55972009D01*
X92287513Y-55987016D01*
X92287512Y-55987017D01*
X92161989Y-56059487D01*
X92161984Y-56059491D01*
X91595763Y-56625710D01*
X91534440Y-56659195D01*
X91488686Y-56660503D01*
X91482353Y-56659500D01*
X91482352Y-56659500D01*
X91277648Y-56659500D01*
X91253329Y-56663351D01*
X91075465Y-56691522D01*
X90880776Y-56754781D01*
X90698386Y-56847715D01*
X90532786Y-56968028D01*
X90388028Y-57112786D01*
X90267715Y-57278386D01*
X90174781Y-57460776D01*
X90111522Y-57655465D01*
X90079500Y-57857648D01*
X90079500Y-58001613D01*
X90059815Y-58068652D01*
X90007011Y-58114407D01*
X89937853Y-58124351D01*
X89874297Y-58095326D01*
X89867819Y-58089294D01*
X89565776Y-57787251D01*
X89535526Y-57737887D01*
X89520222Y-57690785D01*
X89502226Y-57655466D01*
X89427287Y-57508390D01*
X89398629Y-57468945D01*
X89306971Y-57342786D01*
X89162213Y-57198028D01*
X88996613Y-57077715D01*
X88996612Y-57077714D01*
X88996610Y-57077713D01*
X88908436Y-57032786D01*
X88814223Y-56984781D01*
X88619534Y-56921522D01*
X88444995Y-56893878D01*
X88417352Y-56889500D01*
X88212648Y-56889500D01*
X88188329Y-56893351D01*
X88010465Y-56921522D01*
X87815773Y-56984782D01*
X87684242Y-57051801D01*
X87615573Y-57064697D01*
X87559165Y-57044490D01*
X86860928Y-56578999D01*
X86850712Y-56572188D01*
X86838015Y-56559491D01*
X86790620Y-56532127D01*
X86787295Y-56529910D01*
X86745061Y-56501754D01*
X86739665Y-56499929D01*
X86739665Y-56499928D01*
X86728032Y-56495993D01*
X86712485Y-56487016D01*
X86659623Y-56472851D01*
X86655821Y-56471565D01*
X86655812Y-56471563D01*
X86607752Y-56455305D01*
X86602065Y-56454938D01*
X86577976Y-56450973D01*
X86572481Y-56449501D01*
X86572477Y-56449500D01*
X86572475Y-56449500D01*
X86572472Y-56449500D01*
X86517730Y-56449500D01*
X86463105Y-56445977D01*
X86445490Y-56449500D01*
X79020214Y-56449500D01*
X79012784Y-56449277D01*
X78960638Y-56446146D01*
X78956558Y-56446982D01*
X78931697Y-56449500D01*
X78927519Y-56449500D01*
X78877054Y-56463022D01*
X78873463Y-56463985D01*
X78818633Y-56475206D01*
X78803671Y-56482686D01*
X78791541Y-56485936D01*
X78791540Y-56485936D01*
X78787516Y-56487015D01*
X78787515Y-56487016D01*
X78742266Y-56513139D01*
X78735724Y-56516659D01*
X77974025Y-56897509D01*
X77905259Y-56909884D01*
X77845685Y-56886919D01*
X77681609Y-56767712D01*
X77499223Y-56674781D01*
X77304534Y-56611522D01*
X77129995Y-56583878D01*
X77102352Y-56579500D01*
X76897648Y-56579500D01*
X76873329Y-56583351D01*
X76695465Y-56611522D01*
X76500776Y-56674781D01*
X76318386Y-56767715D01*
X76152786Y-56888028D01*
X76008028Y-57032786D01*
X75887715Y-57198386D01*
X75794781Y-57380776D01*
X75731522Y-57575465D01*
X75699500Y-57777648D01*
X75699500Y-57982351D01*
X75731522Y-58184534D01*
X75794781Y-58379223D01*
X75855592Y-58498570D01*
X75886633Y-58559491D01*
X75887715Y-58561613D01*
X76008028Y-58727213D01*
X76152786Y-58871971D01*
X76292800Y-58973695D01*
X76318390Y-58992287D01*
X76434607Y-59051503D01*
X76500776Y-59085218D01*
X76500778Y-59085218D01*
X76500781Y-59085220D01*
X76547596Y-59100431D01*
X76695465Y-59148477D01*
X76796557Y-59164488D01*
X76897648Y-59180500D01*
X76897649Y-59180500D01*
X77102351Y-59180500D01*
X77102352Y-59180500D01*
X77304534Y-59148477D01*
X77499219Y-59085220D01*
X77681610Y-58992287D01*
X77789924Y-58913593D01*
X77847213Y-58871971D01*
X77847215Y-58871968D01*
X77847219Y-58871966D01*
X77991966Y-58727219D01*
X77991968Y-58727215D01*
X77991971Y-58727213D01*
X78058096Y-58636198D01*
X78112287Y-58561610D01*
X78205220Y-58379219D01*
X78268477Y-58184534D01*
X78293469Y-58026742D01*
X78323397Y-57963610D01*
X78360484Y-57935234D01*
X79103773Y-57563591D01*
X79116362Y-57560619D01*
X79124292Y-57555523D01*
X79159227Y-57550500D01*
X79271000Y-57550500D01*
X79338039Y-57570185D01*
X79383794Y-57622989D01*
X79395000Y-57674500D01*
X79395000Y-57940000D01*
X80379314Y-57940000D01*
X80374920Y-57944394D01*
X80322259Y-58035606D01*
X80295000Y-58137339D01*
X80295000Y-58242661D01*
X80322259Y-58344394D01*
X80374920Y-58435606D01*
X80379314Y-58440000D01*
X79395001Y-58440000D01*
X79395001Y-58789986D01*
X79405494Y-58892697D01*
X79460641Y-59059119D01*
X79460643Y-59059124D01*
X79486122Y-59100431D01*
X79504562Y-59167824D01*
X79483639Y-59234487D01*
X79468265Y-59253209D01*
X79426695Y-59294780D01*
X79308292Y-59413182D01*
X79246972Y-59446666D01*
X79220613Y-59449500D01*
X75927525Y-59449500D01*
X75822517Y-59477637D01*
X75787514Y-59487016D01*
X75661986Y-59559489D01*
X75661983Y-59559491D01*
X74308294Y-60913181D01*
X74246971Y-60946666D01*
X74220613Y-60949500D01*
X70755078Y-60949500D01*
X70688039Y-60929815D01*
X70644593Y-60881794D01*
X70612286Y-60818388D01*
X70491971Y-60652786D01*
X70347213Y-60508028D01*
X70181614Y-60387715D01*
X70170500Y-60382052D01*
X69999219Y-60294780D01*
X69999215Y-60294778D01*
X69998205Y-60294264D01*
X69947409Y-60246290D01*
X69930500Y-60183779D01*
X69930500Y-59135077D01*
X69950185Y-59068038D01*
X69998204Y-59024593D01*
X70061610Y-58992287D01*
X70227219Y-58871966D01*
X70371966Y-58727219D01*
X70371968Y-58727215D01*
X70371971Y-58727213D01*
X70438096Y-58636198D01*
X70492287Y-58561610D01*
X70585220Y-58379219D01*
X70648477Y-58184534D01*
X70680500Y-57982352D01*
X70680500Y-57777648D01*
X70653545Y-57607461D01*
X70648477Y-57575465D01*
X70611274Y-57460968D01*
X70585220Y-57380781D01*
X70585218Y-57380778D01*
X70585218Y-57380776D01*
X70545173Y-57302185D01*
X70492287Y-57198390D01*
X70484556Y-57187749D01*
X70371971Y-57032786D01*
X70227213Y-56888028D01*
X70061613Y-56767715D01*
X70061612Y-56767714D01*
X70061610Y-56767713D01*
X70004653Y-56738691D01*
X69879223Y-56674781D01*
X69684534Y-56611522D01*
X69509995Y-56583878D01*
X69482352Y-56579500D01*
X69277648Y-56579500D01*
X69253329Y-56583351D01*
X69075465Y-56611522D01*
X68880776Y-56674781D01*
X68698386Y-56767715D01*
X68532786Y-56888028D01*
X68388028Y-57032786D01*
X68267715Y-57198386D01*
X68174781Y-57380776D01*
X68111522Y-57575465D01*
X68079500Y-57777648D01*
X68079500Y-57982351D01*
X68111522Y-58184534D01*
X68174781Y-58379223D01*
X68235592Y-58498570D01*
X68266633Y-58559491D01*
X68267715Y-58561613D01*
X68388028Y-58727213D01*
X68388034Y-58727219D01*
X68532781Y-58871966D01*
X68698390Y-58992287D01*
X68761795Y-59024593D01*
X68812590Y-59072566D01*
X68829500Y-59135077D01*
X68829500Y-60316459D01*
X68809815Y-60383498D01*
X68778385Y-60416777D01*
X68652787Y-60508028D01*
X68652782Y-60508032D01*
X68508028Y-60652786D01*
X68387715Y-60818386D01*
X68294781Y-61000776D01*
X68231522Y-61195465D01*
X68199500Y-61397648D01*
X68199500Y-61602351D01*
X68231522Y-61804534D01*
X68294781Y-61999223D01*
X68350308Y-62108198D01*
X68384090Y-62174500D01*
X68387715Y-62181613D01*
X68508028Y-62347213D01*
X68652786Y-62491971D01*
X68807749Y-62604556D01*
X68818390Y-62612287D01*
X68934607Y-62671503D01*
X69000776Y-62705218D01*
X69000778Y-62705218D01*
X69000781Y-62705220D01*
X69080287Y-62731053D01*
X69195465Y-62768477D01*
X69296557Y-62784488D01*
X69397648Y-62800500D01*
X69397649Y-62800500D01*
X69602351Y-62800500D01*
X69602352Y-62800500D01*
X69804534Y-62768477D01*
X69999219Y-62705220D01*
X70181610Y-62612287D01*
X70302682Y-62524324D01*
X70347213Y-62491971D01*
X70347215Y-62491968D01*
X70347219Y-62491966D01*
X70491966Y-62347219D01*
X70491968Y-62347215D01*
X70491971Y-62347213D01*
X70602511Y-62195065D01*
X70612287Y-62181610D01*
X70644593Y-62118205D01*
X70692567Y-62067409D01*
X70755078Y-62050500D01*
X74572472Y-62050500D01*
X74572474Y-62050500D01*
X74572475Y-62050500D01*
X74712485Y-62012984D01*
X74757463Y-61987016D01*
X74838015Y-61940510D01*
X75632192Y-61146332D01*
X75693513Y-61112849D01*
X75763204Y-61117833D01*
X75819138Y-61159705D01*
X75843555Y-61225169D01*
X75842344Y-61253412D01*
X75819500Y-61397647D01*
X75819500Y-61602351D01*
X75851522Y-61804534D01*
X75914781Y-61999223D01*
X75970308Y-62108198D01*
X76004090Y-62174500D01*
X76007715Y-62181613D01*
X76128028Y-62347213D01*
X76272786Y-62491971D01*
X76427749Y-62604556D01*
X76438390Y-62612287D01*
X76554607Y-62671503D01*
X76620776Y-62705218D01*
X76620778Y-62705218D01*
X76620781Y-62705220D01*
X76700287Y-62731053D01*
X76815465Y-62768477D01*
X76916557Y-62784488D01*
X77017648Y-62800500D01*
X77017649Y-62800500D01*
X77222351Y-62800500D01*
X77222352Y-62800500D01*
X77424534Y-62768477D01*
X77619219Y-62705220D01*
X77801610Y-62612287D01*
X77922682Y-62524324D01*
X77967213Y-62491971D01*
X77967215Y-62491968D01*
X77967219Y-62491966D01*
X78111966Y-62347219D01*
X78111968Y-62347215D01*
X78111971Y-62347213D01*
X78222511Y-62195065D01*
X78232287Y-62181610D01*
X78264593Y-62118205D01*
X78312567Y-62067409D01*
X78375078Y-62050500D01*
X78825500Y-62050500D01*
X78892539Y-62070185D01*
X78938294Y-62122989D01*
X78949500Y-62174500D01*
X78949500Y-70427526D01*
X78949500Y-70572474D01*
X78987016Y-70712485D01*
X79004505Y-70742778D01*
X79059489Y-70838013D01*
X79059491Y-70838016D01*
X80163905Y-71942430D01*
X80184252Y-71969234D01*
X80189605Y-71978734D01*
X80190423Y-71981784D01*
X80228112Y-72047065D01*
X80228416Y-72047604D01*
X80230577Y-72056935D01*
X80244388Y-72108480D01*
X80244388Y-72350000D01*
X80244389Y-72350019D01*
X80254888Y-72452796D01*
X80254889Y-72452799D01*
X80310073Y-72619331D01*
X80310075Y-72619336D01*
X80332749Y-72656097D01*
X80402176Y-72768656D01*
X80526232Y-72892712D01*
X80675554Y-72984814D01*
X80842091Y-73039999D01*
X80944879Y-73050500D01*
X82144896Y-73050499D01*
X82247685Y-73039999D01*
X82414222Y-72984814D01*
X82563544Y-72892712D01*
X82632767Y-72823489D01*
X82694090Y-72790004D01*
X82763782Y-72794988D01*
X82793334Y-72810853D01*
X82863534Y-72861857D01*
X83045856Y-72954755D01*
X83240470Y-73017990D01*
X83442571Y-73050000D01*
X83647205Y-73050000D01*
X83849305Y-73017990D01*
X84043919Y-72954755D01*
X84226237Y-72861859D01*
X84270809Y-72829474D01*
X83591335Y-72150000D01*
X83597549Y-72150000D01*
X83699282Y-72122741D01*
X83790494Y-72070080D01*
X83864968Y-71995606D01*
X83917629Y-71904394D01*
X83944888Y-71802661D01*
X83944888Y-71796447D01*
X84624362Y-72475921D01*
X84656747Y-72431349D01*
X84749643Y-72249031D01*
X84812878Y-72054417D01*
X84844888Y-71852317D01*
X84844888Y-71647682D01*
X84812878Y-71445582D01*
X84749643Y-71250968D01*
X84656747Y-71068650D01*
X84624362Y-71024077D01*
X84624362Y-71024076D01*
X83944888Y-71703551D01*
X83944888Y-71697339D01*
X83917629Y-71595606D01*
X83864968Y-71504394D01*
X83790494Y-71429920D01*
X83699282Y-71377259D01*
X83597549Y-71350000D01*
X83591334Y-71350000D01*
X84270810Y-70670524D01*
X84270809Y-70670523D01*
X84226247Y-70638147D01*
X84226238Y-70638141D01*
X84043919Y-70545244D01*
X83849305Y-70482009D01*
X83647205Y-70450000D01*
X83442571Y-70450000D01*
X83240470Y-70482009D01*
X83045856Y-70545244D01*
X82863539Y-70638139D01*
X82793332Y-70689148D01*
X82727525Y-70712627D01*
X82659471Y-70696801D01*
X82632766Y-70676510D01*
X82563545Y-70607289D01*
X82563544Y-70607288D01*
X82414222Y-70515186D01*
X82247685Y-70460001D01*
X82247683Y-70460000D01*
X82206784Y-70455822D01*
X82142093Y-70429425D01*
X82101942Y-70372244D01*
X82095388Y-70332464D01*
X82095388Y-67734499D01*
X82115073Y-67667460D01*
X82131707Y-67646818D01*
X85691706Y-64086819D01*
X85753029Y-64053334D01*
X85779387Y-64050500D01*
X87211378Y-64050500D01*
X87278417Y-64070185D01*
X87311696Y-64101615D01*
X87323028Y-64117212D01*
X87323032Y-64117217D01*
X87467786Y-64261971D01*
X87604063Y-64360980D01*
X87633390Y-64382287D01*
X87708358Y-64420485D01*
X87726080Y-64429515D01*
X87776876Y-64477490D01*
X87793671Y-64545311D01*
X87771134Y-64611446D01*
X87726080Y-64650485D01*
X87633386Y-64697715D01*
X87467786Y-64818028D01*
X87323028Y-64962786D01*
X87202715Y-65128386D01*
X87109781Y-65310776D01*
X87046522Y-65505465D01*
X87014500Y-65707648D01*
X87014500Y-65912351D01*
X87046522Y-66114534D01*
X87109781Y-66309223D01*
X87202715Y-66491613D01*
X87323028Y-66657213D01*
X87467786Y-66801971D01*
X87619934Y-66912511D01*
X87633390Y-66922287D01*
X87708358Y-66960485D01*
X87815776Y-67015218D01*
X87815778Y-67015218D01*
X87815781Y-67015220D01*
X87920137Y-67049127D01*
X88010465Y-67078477D01*
X88111557Y-67094488D01*
X88212648Y-67110500D01*
X88212649Y-67110500D01*
X88417351Y-67110500D01*
X88417352Y-67110500D01*
X88619534Y-67078477D01*
X88787184Y-67024003D01*
X88857022Y-67022009D01*
X88916855Y-67058089D01*
X88947684Y-67120789D01*
X88949500Y-67141935D01*
X88949500Y-69482269D01*
X88945977Y-69536895D01*
X88949500Y-69554509D01*
X88949500Y-69572476D01*
X88962633Y-69621491D01*
X88964450Y-69629263D01*
X88974404Y-69679030D01*
X88974405Y-69679033D01*
X88976923Y-69684126D01*
X88982367Y-69695136D01*
X88987016Y-69712485D01*
X89014384Y-69759887D01*
X89038649Y-69808963D01*
X89050509Y-69822459D01*
X89059491Y-69838015D01*
X89098194Y-69876718D01*
X89134335Y-69917842D01*
X89149284Y-69927808D01*
X89161985Y-69940509D01*
X89209386Y-69967876D01*
X90024284Y-70511141D01*
X90069144Y-70564705D01*
X90079500Y-70614314D01*
X90079500Y-70762352D01*
X90079507Y-70762394D01*
X90111522Y-70964534D01*
X90174781Y-71159223D01*
X90267717Y-71341618D01*
X90270259Y-71345766D01*
X90269106Y-71346472D01*
X90290521Y-71406491D01*
X90274696Y-71474545D01*
X90228723Y-71520958D01*
X90161988Y-71559487D01*
X90161983Y-71559491D01*
X89559491Y-72161983D01*
X89559489Y-72161986D01*
X89501180Y-72262983D01*
X89501178Y-72262986D01*
X89487017Y-72287512D01*
X89487016Y-72287514D01*
X89487016Y-72287515D01*
X89449500Y-72427525D01*
X89449500Y-74572475D01*
X89456149Y-74597288D01*
X89487016Y-74712485D01*
X89538756Y-74802103D01*
X89559489Y-74838013D01*
X89559491Y-74838016D01*
X89699294Y-74977819D01*
X89732779Y-75039142D01*
X89727795Y-75108834D01*
X89685923Y-75164767D01*
X89620459Y-75189184D01*
X89611613Y-75189500D01*
X75984386Y-75189500D01*
X75917347Y-75169815D01*
X75896705Y-75153181D01*
X74664653Y-73921129D01*
X74631168Y-73859806D01*
X74636152Y-73790114D01*
X74637737Y-73786084D01*
X74708606Y-73614993D01*
X74769693Y-73387014D01*
X74800500Y-73153011D01*
X74800500Y-72916989D01*
X74769693Y-72682986D01*
X74708606Y-72455007D01*
X74618284Y-72236951D01*
X74618282Y-72236948D01*
X74618280Y-72236943D01*
X74568083Y-72150000D01*
X74500273Y-72032550D01*
X74401936Y-71904394D01*
X74356593Y-71845302D01*
X74356587Y-71845295D01*
X74189704Y-71678412D01*
X74189697Y-71678406D01*
X74002454Y-71534730D01*
X74002453Y-71534729D01*
X74002450Y-71534727D01*
X73897968Y-71474404D01*
X73798056Y-71416719D01*
X73798045Y-71416714D01*
X73579993Y-71326394D01*
X73352010Y-71265306D01*
X73118020Y-71234501D01*
X73118017Y-71234500D01*
X73118011Y-71234500D01*
X72881989Y-71234500D01*
X72881983Y-71234500D01*
X72881979Y-71234501D01*
X72647989Y-71265306D01*
X72420006Y-71326394D01*
X72201954Y-71416714D01*
X72201943Y-71416719D01*
X71997545Y-71534730D01*
X71810302Y-71678406D01*
X71810295Y-71678412D01*
X71643412Y-71845295D01*
X71643406Y-71845302D01*
X71499730Y-72032545D01*
X71381719Y-72236943D01*
X71381714Y-72236954D01*
X71291394Y-72455006D01*
X71230306Y-72682989D01*
X71202046Y-72897648D01*
X71199500Y-72916989D01*
X71199500Y-73153011D01*
X71230307Y-73387014D01*
X71264060Y-73512982D01*
X71291394Y-73614993D01*
X71381714Y-73833045D01*
X71381719Y-73833056D01*
X71409754Y-73881613D01*
X71499727Y-74037450D01*
X71499729Y-74037453D01*
X71499730Y-74037454D01*
X71643406Y-74224697D01*
X71643412Y-74224704D01*
X71810295Y-74391587D01*
X71810302Y-74391593D01*
X71886421Y-74450001D01*
X71997550Y-74535273D01*
X72104963Y-74597288D01*
X72201943Y-74653280D01*
X72201948Y-74653282D01*
X72201951Y-74653284D01*
X72420007Y-74743606D01*
X72647986Y-74804693D01*
X72881989Y-74835500D01*
X72881996Y-74835500D01*
X73118004Y-74835500D01*
X73118011Y-74835500D01*
X73352014Y-74804693D01*
X73579993Y-74743606D01*
X73751000Y-74672772D01*
X73820464Y-74665304D01*
X73882943Y-74696579D01*
X73886129Y-74699653D01*
X75366986Y-76180510D01*
X75465408Y-76237334D01*
X75492515Y-76252984D01*
X75632525Y-76290500D01*
X75632526Y-76290500D01*
X75777474Y-76290500D01*
X90124922Y-76290500D01*
X90191961Y-76310185D01*
X90235407Y-76358206D01*
X90267713Y-76421611D01*
X90388028Y-76587213D01*
X90532786Y-76731971D01*
X90642785Y-76811888D01*
X90698390Y-76852287D01*
X90775519Y-76891586D01*
X90880776Y-76945218D01*
X90880778Y-76945218D01*
X90880781Y-76945220D01*
X90985137Y-76979127D01*
X91075465Y-77008477D01*
X91131253Y-77017313D01*
X91277648Y-77040500D01*
X91277649Y-77040500D01*
X91482351Y-77040500D01*
X91482352Y-77040500D01*
X91684534Y-77008477D01*
X91879219Y-76945220D01*
X92061610Y-76852287D01*
X92196234Y-76754478D01*
X92227213Y-76731971D01*
X92227215Y-76731968D01*
X92227219Y-76731966D01*
X92371966Y-76587219D01*
X92371968Y-76587215D01*
X92371971Y-76587213D01*
X92424732Y-76514590D01*
X92492287Y-76421610D01*
X92585220Y-76239219D01*
X92648477Y-76044534D01*
X92680500Y-75842352D01*
X92680500Y-75637648D01*
X92648477Y-75435466D01*
X92585220Y-75240781D01*
X92585218Y-75240778D01*
X92585218Y-75240776D01*
X92546489Y-75164767D01*
X92492287Y-75058390D01*
X92472938Y-75031758D01*
X92371971Y-74892786D01*
X92227213Y-74748028D01*
X92061614Y-74627715D01*
X92055006Y-74624348D01*
X91968917Y-74580483D01*
X91918123Y-74532511D01*
X91901328Y-74464690D01*
X91923865Y-74398555D01*
X91968917Y-74359516D01*
X92061610Y-74312287D01*
X92182166Y-74224699D01*
X92227213Y-74191971D01*
X92227215Y-74191968D01*
X92227219Y-74191966D01*
X92371966Y-74047219D01*
X92371968Y-74047215D01*
X92371971Y-74047213D01*
X92463575Y-73921129D01*
X92492287Y-73881610D01*
X92585220Y-73699219D01*
X92648477Y-73504534D01*
X92680500Y-73302352D01*
X92680500Y-73097648D01*
X92651886Y-72916989D01*
X92648477Y-72895465D01*
X92605192Y-72762249D01*
X92585220Y-72700781D01*
X92585218Y-72700778D01*
X92585218Y-72700776D01*
X92515115Y-72563193D01*
X92492287Y-72518390D01*
X92456844Y-72469606D01*
X92433365Y-72403800D01*
X92449191Y-72335746D01*
X92469478Y-72309045D01*
X92940510Y-71838015D01*
X93012984Y-71712485D01*
X93024115Y-71670943D01*
X93050500Y-71572475D01*
X93050500Y-70090918D01*
X93052208Y-70085100D01*
X93051060Y-70079147D01*
X93061937Y-70051966D01*
X93070185Y-70023879D01*
X93074767Y-70019908D01*
X93077020Y-70014279D01*
X93100868Y-69997291D01*
X93122989Y-69978124D01*
X93128988Y-69977261D01*
X93133928Y-69973743D01*
X93163170Y-69972346D01*
X93192147Y-69968180D01*
X93199213Y-69970625D01*
X93203719Y-69970410D01*
X93236434Y-69983505D01*
X93236486Y-69983523D01*
X93239498Y-69985261D01*
X93242525Y-69987009D01*
X93242527Y-69987011D01*
X93242529Y-69987012D01*
X93242532Y-69987013D01*
X93242537Y-69987016D01*
X93287515Y-70012984D01*
X93427525Y-70050500D01*
X93427526Y-70050500D01*
X93572474Y-70050500D01*
X97427525Y-70050500D01*
X97560613Y-70050500D01*
X97590053Y-70059144D01*
X97620040Y-70065668D01*
X97625055Y-70069422D01*
X97627652Y-70070185D01*
X97648294Y-70086819D01*
X97723262Y-70161787D01*
X97756747Y-70223110D01*
X97753513Y-70287784D01*
X97731522Y-70355466D01*
X97706225Y-70515186D01*
X97699500Y-70557648D01*
X97699500Y-70762352D01*
X97699507Y-70762394D01*
X97731522Y-70964534D01*
X97794781Y-71159223D01*
X97887715Y-71341613D01*
X98008028Y-71507213D01*
X98152786Y-71651971D01*
X98287713Y-71749999D01*
X98318390Y-71772287D01*
X98409840Y-71818883D01*
X98411080Y-71819515D01*
X98461876Y-71867490D01*
X98478671Y-71935311D01*
X98456134Y-72001446D01*
X98411080Y-72040485D01*
X98318386Y-72087715D01*
X98152786Y-72208028D01*
X98008028Y-72352786D01*
X97887715Y-72518386D01*
X97794781Y-72700776D01*
X97731522Y-72895465D01*
X97699500Y-73097648D01*
X97699500Y-73302351D01*
X97719645Y-73429541D01*
X97710690Y-73498834D01*
X97684853Y-73536620D01*
X97059491Y-74161983D01*
X97059489Y-74161986D01*
X96987016Y-74287514D01*
X96982336Y-74304980D01*
X96949500Y-74427525D01*
X96949500Y-76927525D01*
X96949500Y-76927526D01*
X96949500Y-77072474D01*
X96978743Y-77181610D01*
X96987016Y-77212485D01*
X97059489Y-77338013D01*
X97059491Y-77338016D01*
X98009295Y-78287819D01*
X98042780Y-78349142D01*
X98037796Y-78418833D01*
X97995924Y-78474767D01*
X97930460Y-78499184D01*
X97921614Y-78499500D01*
X67624500Y-78499500D01*
X67557461Y-78479815D01*
X67511706Y-78427011D01*
X67500500Y-78375500D01*
X67500500Y-66855013D01*
X71200000Y-66855013D01*
X71200000Y-67705000D01*
X72399999Y-67705000D01*
X72374979Y-67765402D01*
X72350000Y-67890981D01*
X72350000Y-68019019D01*
X72374979Y-68144598D01*
X72399999Y-68205000D01*
X71200001Y-68205000D01*
X71200001Y-69054986D01*
X71210494Y-69157697D01*
X71265641Y-69324119D01*
X71265643Y-69324124D01*
X71357684Y-69473345D01*
X71481654Y-69597315D01*
X71630875Y-69689356D01*
X71630880Y-69689358D01*
X71797302Y-69744505D01*
X71797309Y-69744506D01*
X71900019Y-69754999D01*
X72749999Y-69754999D01*
X72750000Y-69754998D01*
X72750000Y-68555001D01*
X72810402Y-68580021D01*
X72935981Y-68605000D01*
X73064019Y-68605000D01*
X73189598Y-68580021D01*
X73250000Y-68555001D01*
X73250000Y-69754999D01*
X74099972Y-69754999D01*
X74099986Y-69754998D01*
X74202697Y-69744505D01*
X74369119Y-69689358D01*
X74369124Y-69689356D01*
X74518345Y-69597315D01*
X74642315Y-69473345D01*
X74734356Y-69324124D01*
X74734358Y-69324119D01*
X74789505Y-69157697D01*
X74789506Y-69157690D01*
X74799999Y-69054986D01*
X74800000Y-69054973D01*
X74800000Y-68205000D01*
X73600001Y-68205000D01*
X73625021Y-68144598D01*
X73650000Y-68019019D01*
X73650000Y-67890981D01*
X73625021Y-67765402D01*
X73600001Y-67705000D01*
X74799999Y-67705000D01*
X74799999Y-66855028D01*
X74799998Y-66855013D01*
X74789505Y-66752302D01*
X74734358Y-66585880D01*
X74734356Y-66585875D01*
X74642315Y-66436654D01*
X74518345Y-66312684D01*
X74369124Y-66220643D01*
X74369119Y-66220641D01*
X74202697Y-66165494D01*
X74202690Y-66165493D01*
X74099986Y-66155000D01*
X73250000Y-66155000D01*
X73250000Y-67354998D01*
X73189598Y-67329979D01*
X73064019Y-67305000D01*
X72935981Y-67305000D01*
X72810402Y-67329979D01*
X72750000Y-67354998D01*
X72750000Y-66155000D01*
X71900028Y-66155000D01*
X71900012Y-66155001D01*
X71797302Y-66165494D01*
X71630880Y-66220641D01*
X71630875Y-66220643D01*
X71481654Y-66312684D01*
X71357684Y-66436654D01*
X71265643Y-66585875D01*
X71265641Y-66585880D01*
X71210494Y-66752302D01*
X71210493Y-66752309D01*
X71200000Y-66855013D01*
X67500500Y-66855013D01*
X67500500Y-55624500D01*
X67520185Y-55557461D01*
X67572989Y-55511706D01*
X67624500Y-55500500D01*
X117525500Y-55500500D01*
X117592539Y-55520185D01*
G37*
%TD.AperFunction*%
%TA.AperFunction,Conductor*%
G36*
X86362817Y-57570185D02*
G01*
X86364561Y-57571326D01*
X86960273Y-57968467D01*
X87005133Y-58022031D01*
X87012894Y-58082629D01*
X87014882Y-58082786D01*
X87014500Y-58087642D01*
X87014500Y-58292351D01*
X87046522Y-58494534D01*
X87109781Y-58689223D01*
X87150535Y-58769205D01*
X87163431Y-58837874D01*
X87137155Y-58902615D01*
X87080048Y-58942872D01*
X87040050Y-58949500D01*
X82116017Y-58949500D01*
X82048978Y-58929815D01*
X82003223Y-58877011D01*
X81992659Y-58812899D01*
X81994999Y-58789990D01*
X81995000Y-58789973D01*
X81995000Y-58440000D01*
X81010686Y-58440000D01*
X81015080Y-58435606D01*
X81067741Y-58344394D01*
X81095000Y-58242661D01*
X81095000Y-58137339D01*
X81067741Y-58035606D01*
X81015080Y-57944394D01*
X81010686Y-57940000D01*
X81994999Y-57940000D01*
X81994999Y-57674500D01*
X82014684Y-57607461D01*
X82067488Y-57561706D01*
X82118999Y-57550500D01*
X86295778Y-57550500D01*
X86362817Y-57570185D01*
G37*
%TD.AperFunction*%
%TA.AperFunction,Conductor*%
G36*
X97877577Y-57070185D02*
G01*
X97923332Y-57122989D01*
X97933276Y-57192147D01*
X97910855Y-57247387D01*
X97888140Y-57278649D01*
X97795244Y-57460968D01*
X97732009Y-57655582D01*
X97700000Y-57857682D01*
X97700000Y-58062317D01*
X97732010Y-58264419D01*
X97739406Y-58287180D01*
X97741403Y-58357021D01*
X97705323Y-58416854D01*
X97642623Y-58447684D01*
X97621476Y-58449500D01*
X92759050Y-58449500D01*
X92692011Y-58429815D01*
X92646256Y-58377011D01*
X92636312Y-58307853D01*
X92641119Y-58287182D01*
X92648476Y-58264538D01*
X92648476Y-58264537D01*
X92648477Y-58264534D01*
X92680500Y-58062352D01*
X92680500Y-57857648D01*
X92665980Y-57765974D01*
X92648477Y-57655465D01*
X92621138Y-57571326D01*
X92585220Y-57460781D01*
X92585217Y-57460777D01*
X92585217Y-57460774D01*
X92535836Y-57363860D01*
X92531273Y-57339568D01*
X92522636Y-57316409D01*
X92524937Y-57305830D01*
X92522939Y-57295191D01*
X92532233Y-57272290D01*
X92537488Y-57248136D01*
X92547423Y-57234863D01*
X92549215Y-57230450D01*
X92558620Y-57219902D01*
X92691706Y-57086816D01*
X92753029Y-57053334D01*
X92779386Y-57050500D01*
X97810538Y-57050500D01*
X97877577Y-57070185D01*
G37*
%TD.AperFunction*%
%TD*%
D19*
%TO.C,U1*%
X80695000Y-58190000D03*
D20*
X80695000Y-60730000D03*
X80695000Y-63270000D03*
X80695000Y-65810000D03*
X88315000Y-65810000D03*
X88315000Y-63270000D03*
X88315000Y-60730000D03*
X88315000Y-58190000D03*
%TD*%
D21*
%TO.C,D5*%
X107230000Y-58500000D03*
D22*
X109770000Y-58500000D03*
%TD*%
D21*
%TO.C,D2*%
X115770000Y-66500000D03*
D22*
X113230000Y-66500000D03*
%TD*%
D23*
%TO.C,J2*%
X73000000Y-67955000D03*
D24*
X73000000Y-73035000D03*
%TD*%
D20*
%TO.C,R7*%
X102690000Y-62500000D03*
X110310000Y-62500000D03*
%TD*%
%TO.C,R5*%
X102570000Y-73000000D03*
X110190000Y-73000000D03*
%TD*%
D21*
%TO.C,D3*%
X115770000Y-71300000D03*
D22*
X113230000Y-71300000D03*
%TD*%
D20*
%TO.C,R3*%
X102570000Y-66000000D03*
X110190000Y-66000000D03*
%TD*%
%TO.C,R6*%
X102570000Y-76500000D03*
X110190000Y-76500000D03*
%TD*%
D19*
%TO.C,C1*%
X81544888Y-71750000D03*
D20*
X83544888Y-71750000D03*
%TD*%
D25*
%TO.C,U2*%
X99000000Y-75740000D03*
D20*
X99000000Y-73200000D03*
X99000000Y-70660000D03*
X99000000Y-68120000D03*
X99000000Y-65580000D03*
X99000000Y-63040000D03*
X99000000Y-60500000D03*
X99000000Y-57960000D03*
X91380000Y-57960000D03*
X91380000Y-60500000D03*
X91380000Y-63040000D03*
X91380000Y-65580000D03*
X91380000Y-68120000D03*
X91380000Y-70660000D03*
X91380000Y-73200000D03*
X91380000Y-75740000D03*
%TD*%
%TO.C,R2*%
X69500000Y-61500000D03*
X77120000Y-61500000D03*
%TD*%
%TO.C,R4*%
X102570000Y-69500000D03*
X110190000Y-69500000D03*
%TD*%
D21*
%TO.C,D4*%
X115770000Y-76100000D03*
D22*
X113230000Y-76100000D03*
%TD*%
D21*
%TO.C,D1*%
X115770000Y-61700000D03*
D22*
X113230000Y-61700000D03*
%TD*%
D20*
%TO.C,R1*%
X77000000Y-57880000D03*
X69380000Y-57880000D03*
%TD*%
D11*
%TO.P,U1,1,GND*%
%TO.N,GND*%
X80695000Y-58190000D03*
D12*
%TO.P,U1,2,TR*%
%TO.N,Net-(U1-THR)*%
X80695000Y-60730000D03*
%TO.P,U1,3,Q*%
%TO.N,Net-(U1-Q)*%
X80695000Y-63270000D03*
%TO.P,U1,4,R*%
%TO.N,unconnected-(U1-R-Pad4)*%
X80695000Y-65810000D03*
%TO.P,U1,5,CV*%
%TO.N,unconnected-(U1-CV-Pad5)*%
X88315000Y-65810000D03*
%TO.P,U1,6,THR*%
%TO.N,Net-(U1-THR)*%
X88315000Y-63270000D03*
%TO.P,U1,7,DIS*%
%TO.N,Net-(U1-DIS)*%
X88315000Y-60730000D03*
%TO.P,U1,8,VCC*%
%TO.N,+12V*%
X88315000Y-58190000D03*
%TD*%
D13*
%TO.P,D5,1,K*%
%TO.N,GND*%
X107230000Y-58500000D03*
D14*
%TO.P,D5,2,A*%
%TO.N,Net-(D5-A)*%
X109770000Y-58500000D03*
%TD*%
D13*
%TO.P,D2,1,K*%
%TO.N,GND*%
X115770000Y-66500000D03*
D14*
%TO.P,D2,2,A*%
%TO.N,Net-(D2-A)*%
X113230000Y-66500000D03*
%TD*%
D15*
%TO.P,J2,1,Pin_1*%
%TO.N,GND*%
X73000000Y-67955000D03*
D16*
%TO.P,J2,2,Pin_2*%
%TO.N,+12V*%
X73000000Y-73035000D03*
%TD*%
D12*
%TO.P,R7,1*%
%TO.N,Net-(U2-Q4)*%
X102690000Y-62500000D03*
%TO.P,R7,2*%
%TO.N,Net-(D5-A)*%
X110310000Y-62500000D03*
%TD*%
%TO.P,R5,1*%
%TO.N,Net-(U2-Q2)*%
X102570000Y-73000000D03*
%TO.P,R5,2*%
%TO.N,Net-(D3-A)*%
X110190000Y-73000000D03*
%TD*%
D13*
%TO.P,D3,1,K*%
%TO.N,GND*%
X115770000Y-71300000D03*
D14*
%TO.P,D3,2,A*%
%TO.N,Net-(D3-A)*%
X113230000Y-71300000D03*
%TD*%
D12*
%TO.P,R3,1*%
%TO.N,Net-(U2-Q0)*%
X102570000Y-66000000D03*
%TO.P,R3,2*%
%TO.N,Net-(D1-A)*%
X110190000Y-66000000D03*
%TD*%
%TO.P,R6,1*%
%TO.N,Net-(U2-Q3)*%
X102570000Y-76500000D03*
%TO.P,R6,2*%
%TO.N,Net-(D4-A)*%
X110190000Y-76500000D03*
%TD*%
D11*
%TO.P,C1,1*%
%TO.N,Net-(U1-THR)*%
X81544888Y-71750000D03*
D12*
%TO.P,C1,2*%
%TO.N,GND*%
X83544888Y-71750000D03*
%TD*%
D17*
%TO.P,U2,1,Q5*%
%TO.N,Net-(U2-Q4)*%
X99000000Y-75740000D03*
D12*
%TO.P,U2,2,Q1*%
%TO.N,Net-(U2-Q1)*%
X99000000Y-73200000D03*
%TO.P,U2,3,Q0*%
%TO.N,Net-(U2-Q0)*%
X99000000Y-70660000D03*
%TO.P,U2,4,Q2*%
%TO.N,Net-(U2-Q2)*%
X99000000Y-68120000D03*
%TO.P,U2,5,Q6*%
%TO.N,Net-(U2-Q3)*%
X99000000Y-65580000D03*
%TO.P,U2,6,Q7*%
%TO.N,Net-(U2-Q2)*%
X99000000Y-63040000D03*
%TO.P,U2,7,Q3*%
%TO.N,Net-(U2-Q3)*%
X99000000Y-60500000D03*
%TO.P,U2,8,VSS*%
%TO.N,GND*%
X99000000Y-57960000D03*
%TO.P,U2,9,Q8*%
%TO.N,Net-(U2-Q1)*%
X91380000Y-57960000D03*
%TO.P,U2,10,Q4*%
%TO.N,Net-(U2-Q4)*%
X91380000Y-60500000D03*
%TO.P,U2,11,Q9*%
%TO.N,Net-(U2-Q0)*%
X91380000Y-63040000D03*
%TO.P,U2,12,Cout*%
%TO.N,unconnected-(U2-Cout-Pad12)*%
X91380000Y-65580000D03*
%TO.P,U2,13,CKEN*%
%TO.N,unconnected-(U2-CKEN-Pad13)*%
X91380000Y-68120000D03*
%TO.P,U2,14,CLK*%
%TO.N,Net-(U1-Q)*%
X91380000Y-70660000D03*
%TO.P,U2,15,Reset*%
%TO.N,unconnected-(U2-Reset-Pad15)*%
X91380000Y-73200000D03*
%TO.P,U2,16,VDD*%
%TO.N,+12V*%
X91380000Y-75740000D03*
%TD*%
%TO.P,R2,1*%
%TO.N,Net-(U1-DIS)*%
X69500000Y-61500000D03*
%TO.P,R2,2*%
%TO.N,Net-(U1-THR)*%
X77120000Y-61500000D03*
%TD*%
%TO.P,R4,1*%
%TO.N,Net-(U2-Q1)*%
X102570000Y-69500000D03*
%TO.P,R4,2*%
%TO.N,Net-(D2-A)*%
X110190000Y-69500000D03*
%TD*%
D13*
%TO.P,D4,1,K*%
%TO.N,GND*%
X115770000Y-76100000D03*
D14*
%TO.P,D4,2,A*%
%TO.N,Net-(D4-A)*%
X113230000Y-76100000D03*
%TD*%
D13*
%TO.P,D1,1,K*%
%TO.N,GND*%
X115770000Y-61700000D03*
D14*
%TO.P,D1,2,A*%
%TO.N,Net-(D1-A)*%
X113230000Y-61700000D03*
%TD*%
D12*
%TO.P,R1,1*%
%TO.N,+12V*%
X77000000Y-57880000D03*
%TO.P,R1,2*%
%TO.N,Net-(U1-DIS)*%
X69380000Y-57880000D03*
%TD*%
D19*
%TO.C,U1*%
X80695000Y-58190000D03*
D20*
X80695000Y-60730000D03*
X80695000Y-63270000D03*
X80695000Y-65810000D03*
X88315000Y-65810000D03*
X88315000Y-63270000D03*
X88315000Y-60730000D03*
X88315000Y-58190000D03*
%TD*%
D21*
%TO.C,D5*%
X107230000Y-58500000D03*
D22*
X109770000Y-58500000D03*
%TD*%
D21*
%TO.C,D2*%
X115770000Y-66500000D03*
D22*
X113230000Y-66500000D03*
%TD*%
D23*
%TO.C,J2*%
X73000000Y-67955000D03*
D24*
X73000000Y-73035000D03*
%TD*%
D20*
%TO.C,R7*%
X102690000Y-62500000D03*
X110310000Y-62500000D03*
%TD*%
%TO.C,R5*%
X102570000Y-73000000D03*
X110190000Y-73000000D03*
%TD*%
D21*
%TO.C,D3*%
X115770000Y-71300000D03*
D22*
X113230000Y-71300000D03*
%TD*%
D20*
%TO.C,R3*%
X102570000Y-66000000D03*
X110190000Y-66000000D03*
%TD*%
%TO.C,R6*%
X102570000Y-76500000D03*
X110190000Y-76500000D03*
%TD*%
D19*
%TO.C,C1*%
X81544888Y-71750000D03*
D20*
X83544888Y-71750000D03*
%TD*%
D25*
%TO.C,U2*%
X99000000Y-75740000D03*
D20*
X99000000Y-73200000D03*
X99000000Y-70660000D03*
X99000000Y-68120000D03*
X99000000Y-65580000D03*
X99000000Y-63040000D03*
X99000000Y-60500000D03*
X99000000Y-57960000D03*
X91380000Y-57960000D03*
X91380000Y-60500000D03*
X91380000Y-63040000D03*
X91380000Y-65580000D03*
X91380000Y-68120000D03*
X91380000Y-70660000D03*
X91380000Y-73200000D03*
X91380000Y-75740000D03*
%TD*%
%TO.C,R2*%
X69500000Y-61500000D03*
X77120000Y-61500000D03*
%TD*%
%TO.C,R4*%
X102570000Y-69500000D03*
X110190000Y-69500000D03*
%TD*%
D21*
%TO.C,D4*%
X115770000Y-76100000D03*
D22*
X113230000Y-76100000D03*
%TD*%
D21*
%TO.C,D1*%
X115770000Y-61700000D03*
D22*
X113230000Y-61700000D03*
%TD*%
D20*
%TO.C,R1*%
X77000000Y-57880000D03*
X69380000Y-57880000D03*
%TD*%
%TO.C,U1*%
D26*
X81855000Y-56860000D02*
X81855000Y-67140000D01*
X81855000Y-67140000D02*
X87155000Y-67140000D01*
X83505000Y-56860000D02*
X81855000Y-56860000D01*
X87155000Y-56860000D02*
X85505000Y-56860000D01*
X87155000Y-67140000D02*
X87155000Y-56860000D01*
X79365000Y-56800000D02*
X89645000Y-56800000D01*
X89645000Y-67200000D01*
X79365000Y-67200000D01*
X79365000Y-56800000D01*
X85505000Y-56860000D02*
G75*
G02*
X83505000Y-56860000I-1000000J0D01*
G01*
%TO.C,D5*%
X106940000Y-57264000D02*
X106940000Y-57420000D01*
X106940000Y-59580000D02*
X106940000Y-59736000D01*
X106940000Y-57264484D02*
G75*
G02*
X110171437Y-57420000I1560000J-1235516D01*
G01*
X107459039Y-57420000D02*
G75*
G02*
X109540961Y-57420000I1040961J-1080000D01*
G01*
X109540961Y-59580000D02*
G75*
G02*
X107459039Y-59580000I-1040961J1080000D01*
G01*
X110171437Y-59580000D02*
G75*
G02*
X106940000Y-59735516I-1671437J1080000D01*
G01*
%TO.C,D2*%
X116060000Y-65420000D02*
X116060000Y-65264000D01*
X116060000Y-67736000D02*
X116060000Y-67580000D01*
X112828563Y-65420000D02*
G75*
G02*
X116060000Y-65264484I1671437J-1080000D01*
G01*
X113459039Y-65420000D02*
G75*
G02*
X115540961Y-65420000I1040961J-1080000D01*
G01*
X115540961Y-67580000D02*
G75*
G02*
X113459039Y-67580000I-1040961J1080000D01*
G01*
X116060000Y-67735516D02*
G75*
G02*
X112828563Y-67580000I-1560000J1235516D01*
G01*
%TO.C,J2*%
X68280000Y-65295000D02*
X68280000Y-67655000D01*
X68280000Y-68255000D02*
X68280000Y-75695000D01*
X68900000Y-65295000D02*
X68900000Y-75695000D01*
X70400000Y-65295000D02*
X70400000Y-75695000D01*
X75300000Y-65295000D02*
X75300000Y-75695000D01*
X78320000Y-65295000D02*
X68280000Y-65295000D01*
X78320000Y-65295000D02*
X78320000Y-75695000D01*
X78320000Y-75695000D02*
X68280000Y-75695000D01*
X68280000Y-67955000D02*
X67670000Y-68395000D01*
X67670000Y-67515000D01*
X68280000Y-67955000D01*
G36*
X68280000Y-67955000D02*
G01*
X67670000Y-68395000D01*
X67670000Y-67515000D01*
X68280000Y-67955000D01*
G37*
%TO.C,R7*%
X103230000Y-61130000D02*
X109770000Y-61130000D01*
X103230000Y-61460000D02*
X103230000Y-61130000D01*
X103230000Y-63540000D02*
X103230000Y-63870000D01*
X103230000Y-63870000D02*
X109770000Y-63870000D01*
X109770000Y-61130000D02*
X109770000Y-61460000D01*
X109770000Y-63870000D02*
X109770000Y-63540000D01*
%TO.C,R5*%
X103110000Y-71630000D02*
X109650000Y-71630000D01*
X103110000Y-71960000D02*
X103110000Y-71630000D01*
X103110000Y-74040000D02*
X103110000Y-74370000D01*
X103110000Y-74370000D02*
X109650000Y-74370000D01*
X109650000Y-71630000D02*
X109650000Y-71960000D01*
X109650000Y-74370000D02*
X109650000Y-74040000D01*
%TO.C,D3*%
X116060000Y-70220000D02*
X116060000Y-70064000D01*
X116060000Y-72536000D02*
X116060000Y-72380000D01*
X112828563Y-70220000D02*
G75*
G02*
X116060000Y-70064484I1671437J-1080000D01*
G01*
X113459039Y-70220000D02*
G75*
G02*
X115540961Y-70220000I1040961J-1080000D01*
G01*
X115540961Y-72380000D02*
G75*
G02*
X113459039Y-72380000I-1040961J1080000D01*
G01*
X116060000Y-72535516D02*
G75*
G02*
X112828563Y-72380000I-1560000J1235516D01*
G01*
%TO.C,R3*%
X103110000Y-64630000D02*
X109650000Y-64630000D01*
X103110000Y-64960000D02*
X103110000Y-64630000D01*
X103110000Y-67040000D02*
X103110000Y-67370000D01*
X103110000Y-67370000D02*
X109650000Y-67370000D01*
X109650000Y-64630000D02*
X109650000Y-64960000D01*
X109650000Y-67370000D02*
X109650000Y-67040000D01*
%TO.C,R6*%
X103110000Y-75130000D02*
X109650000Y-75130000D01*
X103110000Y-75460000D02*
X103110000Y-75130000D01*
X103110000Y-77540000D02*
X103110000Y-77870000D01*
X103110000Y-77870000D02*
X109650000Y-77870000D01*
X109650000Y-75130000D02*
X109650000Y-75460000D01*
X109650000Y-77870000D02*
X109650000Y-77540000D01*
%TO.C,C1*%
X79740113Y-70275000D02*
X80240113Y-70275000D01*
X79990113Y-70025000D02*
X79990113Y-70525000D01*
X82544888Y-69170000D02*
X82544888Y-70710000D01*
X82544888Y-72790000D02*
X82544888Y-74330000D01*
X82584888Y-69170000D02*
X82584888Y-70710000D01*
X82584888Y-72790000D02*
X82584888Y-74330000D01*
X82624888Y-69171000D02*
X82624888Y-70710000D01*
X82624888Y-72790000D02*
X82624888Y-74329000D01*
X82664888Y-69173000D02*
X82664888Y-70710000D01*
X82664888Y-72790000D02*
X82664888Y-74327000D01*
X82704888Y-69175000D02*
X82704888Y-70710000D01*
X82704888Y-72790000D02*
X82704888Y-74325000D01*
X82744888Y-69178000D02*
X82744888Y-70710000D01*
X82744888Y-72790000D02*
X82744888Y-74322000D01*
X82784888Y-69181000D02*
X82784888Y-70710000D01*
X82784888Y-72790000D02*
X82784888Y-74319000D01*
X82824888Y-69185000D02*
X82824888Y-70710000D01*
X82824888Y-72790000D02*
X82824888Y-74315000D01*
X82864888Y-69190000D02*
X82864888Y-70710000D01*
X82864888Y-72790000D02*
X82864888Y-74310000D01*
X82904888Y-69195000D02*
X82904888Y-70710000D01*
X82904888Y-72790000D02*
X82904888Y-74305000D01*
X82944888Y-69201000D02*
X82944888Y-70710000D01*
X82944888Y-72790000D02*
X82944888Y-74299000D01*
X82984888Y-69207000D02*
X82984888Y-70710000D01*
X82984888Y-72790000D02*
X82984888Y-74293000D01*
X83024888Y-69214000D02*
X83024888Y-70710000D01*
X83024888Y-72790000D02*
X83024888Y-74286000D01*
X83064888Y-69222000D02*
X83064888Y-70710000D01*
X83064888Y-72790000D02*
X83064888Y-74278000D01*
X83104888Y-69231000D02*
X83104888Y-70710000D01*
X83104888Y-72790000D02*
X83104888Y-74269000D01*
X83144888Y-69240000D02*
X83144888Y-70710000D01*
X83144888Y-72790000D02*
X83144888Y-74260000D01*
X83184888Y-69249000D02*
X83184888Y-70710000D01*
X83184888Y-72790000D02*
X83184888Y-74251000D01*
X83224888Y-69260000D02*
X83224888Y-70710000D01*
X83224888Y-72790000D02*
X83224888Y-74240000D01*
X83264888Y-69271000D02*
X83264888Y-70710000D01*
X83264888Y-72790000D02*
X83264888Y-74229000D01*
X83304888Y-69283000D02*
X83304888Y-70710000D01*
X83304888Y-72790000D02*
X83304888Y-74217000D01*
X83344888Y-69295000D02*
X83344888Y-70710000D01*
X83344888Y-72790000D02*
X83344888Y-74205000D01*
X83384888Y-69308000D02*
X83384888Y-70710000D01*
X83384888Y-72790000D02*
X83384888Y-74192000D01*
X83424888Y-69322000D02*
X83424888Y-70710000D01*
X83424888Y-72790000D02*
X83424888Y-74178000D01*
X83464888Y-69337000D02*
X83464888Y-70710000D01*
X83464888Y-72790000D02*
X83464888Y-74163000D01*
X83504888Y-69352000D02*
X83504888Y-70710000D01*
X83504888Y-72790000D02*
X83504888Y-74148000D01*
X83544888Y-69368000D02*
X83544888Y-70710000D01*
X83544888Y-72790000D02*
X83544888Y-74132000D01*
X83584888Y-69385000D02*
X83584888Y-70710000D01*
X83584888Y-72790000D02*
X83584888Y-74115000D01*
X83624888Y-69403000D02*
X83624888Y-70710000D01*
X83624888Y-72790000D02*
X83624888Y-74097000D01*
X83664888Y-69421000D02*
X83664888Y-70710000D01*
X83664888Y-72790000D02*
X83664888Y-74079000D01*
X83704888Y-69441000D02*
X83704888Y-70710000D01*
X83704888Y-72790000D02*
X83704888Y-74059000D01*
X83744888Y-69461000D02*
X83744888Y-70710000D01*
X83744888Y-72790000D02*
X83744888Y-74039000D01*
X83784888Y-69482000D02*
X83784888Y-70710000D01*
X83784888Y-72790000D02*
X83784888Y-74018000D01*
X83824888Y-69504000D02*
X83824888Y-70710000D01*
X83824888Y-72790000D02*
X83824888Y-73996000D01*
X83864888Y-69527000D02*
X83864888Y-70710000D01*
X83864888Y-72790000D02*
X83864888Y-73973000D01*
X83904888Y-69551000D02*
X83904888Y-70710000D01*
X83904888Y-72790000D02*
X83904888Y-73949000D01*
X83944888Y-69575000D02*
X83944888Y-70710000D01*
X83944888Y-72790000D02*
X83944888Y-73925000D01*
X83984888Y-69601000D02*
X83984888Y-70710000D01*
X83984888Y-72790000D02*
X83984888Y-73899000D01*
X84024888Y-69628000D02*
X84024888Y-70710000D01*
X84024888Y-72790000D02*
X84024888Y-73872000D01*
X84064888Y-69656000D02*
X84064888Y-70710000D01*
X84064888Y-72790000D02*
X84064888Y-73844000D01*
X84104888Y-69685000D02*
X84104888Y-70710000D01*
X84104888Y-72790000D02*
X84104888Y-73815000D01*
X84144888Y-69715000D02*
X84144888Y-70710000D01*
X84144888Y-72790000D02*
X84144888Y-73785000D01*
X84184888Y-69747000D02*
X84184888Y-70710000D01*
X84184888Y-72790000D02*
X84184888Y-73753000D01*
X84224888Y-69780000D02*
X84224888Y-70710000D01*
X84224888Y-72790000D02*
X84224888Y-73720000D01*
X84264888Y-69814000D02*
X84264888Y-70710000D01*
X84264888Y-72790000D02*
X84264888Y-73686000D01*
X84304888Y-69849000D02*
X84304888Y-70710000D01*
X84304888Y-72790000D02*
X84304888Y-73651000D01*
X84344888Y-69886000D02*
X84344888Y-70710000D01*
X84344888Y-72790000D02*
X84344888Y-73614000D01*
X84384888Y-69925000D02*
X84384888Y-70710000D01*
X84384888Y-72790000D02*
X84384888Y-73575000D01*
X84424888Y-69965000D02*
X84424888Y-70710000D01*
X84424888Y-72790000D02*
X84424888Y-73535000D01*
X84464888Y-70007000D02*
X84464888Y-70710000D01*
X84464888Y-72790000D02*
X84464888Y-73493000D01*
X84504888Y-70051000D02*
X84504888Y-70710000D01*
X84504888Y-72790000D02*
X84504888Y-73449000D01*
X84544888Y-70098000D02*
X84544888Y-70710000D01*
X84544888Y-72790000D02*
X84544888Y-73402000D01*
X84584888Y-70146000D02*
X84584888Y-73354000D01*
X84624888Y-70197000D02*
X84624888Y-73303000D01*
X84664888Y-70251000D02*
X84664888Y-73249000D01*
X84704888Y-70307000D02*
X84704888Y-73193000D01*
X84744888Y-70367000D02*
X84744888Y-73133000D01*
X84784888Y-70431000D02*
X84784888Y-73069000D01*
X84824888Y-70499000D02*
X84824888Y-73001000D01*
X84864888Y-70573000D02*
X84864888Y-72927000D01*
X84904888Y-70652000D02*
X84904888Y-72848000D01*
X84944888Y-70739000D02*
X84944888Y-72761000D01*
X84984888Y-70836000D02*
X84984888Y-72664000D01*
X85024888Y-70945000D02*
X85024888Y-72555000D01*
X85064888Y-71073000D02*
X85064888Y-72427000D01*
X85104888Y-71233000D02*
X85104888Y-72267000D01*
X85144888Y-71467000D02*
X85144888Y-72033000D01*
X85164888Y-71750000D02*
G75*
G02*
X79924888Y-71750000I-2620000J0D01*
G01*
X79924888Y-71750000D02*
G75*
G02*
X85164888Y-71750000I2620000J0D01*
G01*
%TO.C,U2*%
X92540000Y-56630000D02*
X92540000Y-77070000D01*
X92540000Y-77070000D02*
X94190000Y-77070000D01*
X96190000Y-77070000D02*
X97840000Y-77070000D01*
X97840000Y-56630000D02*
X92540000Y-56630000D01*
X97840000Y-77070000D02*
X97840000Y-56630000D01*
X90050000Y-56570000D02*
X100330000Y-56570000D01*
X100330000Y-77130000D01*
X90050000Y-77130000D01*
X90050000Y-56570000D01*
X94190000Y-77070000D02*
G75*
G02*
X96190000Y-77070000I1000000J0D01*
G01*
%TO.C,R2*%
X70040000Y-60130000D02*
X76580000Y-60130000D01*
X70040000Y-60460000D02*
X70040000Y-60130000D01*
X70040000Y-62540000D02*
X70040000Y-62870000D01*
X70040000Y-62870000D02*
X76580000Y-62870000D01*
X76580000Y-60130000D02*
X76580000Y-60460000D01*
X76580000Y-62870000D02*
X76580000Y-62540000D01*
%TO.C,R4*%
X103110000Y-68130000D02*
X109650000Y-68130000D01*
X103110000Y-68460000D02*
X103110000Y-68130000D01*
X103110000Y-70540000D02*
X103110000Y-70870000D01*
X103110000Y-70870000D02*
X109650000Y-70870000D01*
X109650000Y-68130000D02*
X109650000Y-68460000D01*
X109650000Y-70870000D02*
X109650000Y-70540000D01*
%TO.C,D4*%
X116060000Y-75020000D02*
X116060000Y-74864000D01*
X116060000Y-77336000D02*
X116060000Y-77180000D01*
X112828563Y-75020000D02*
G75*
G02*
X116060000Y-74864484I1671437J-1080000D01*
G01*
X113459039Y-75020000D02*
G75*
G02*
X115540961Y-75020000I1040961J-1080000D01*
G01*
X115540961Y-77180000D02*
G75*
G02*
X113459039Y-77180000I-1040961J1080000D01*
G01*
X116060000Y-77335516D02*
G75*
G02*
X112828563Y-77180000I-1560000J1235516D01*
G01*
%TO.C,D1*%
X116060000Y-60620000D02*
X116060000Y-60464000D01*
X116060000Y-62936000D02*
X116060000Y-62780000D01*
X112828563Y-60620000D02*
G75*
G02*
X116060000Y-60464484I1671437J-1080000D01*
G01*
X113459039Y-60620000D02*
G75*
G02*
X115540961Y-60620000I1040961J-1080000D01*
G01*
X115540961Y-62780000D02*
G75*
G02*
X113459039Y-62780000I-1040961J1080000D01*
G01*
X116060000Y-62935516D02*
G75*
G02*
X112828563Y-62780000I-1560000J1235516D01*
G01*
%TO.C,R1*%
X69920000Y-56510000D02*
X69920000Y-56840000D01*
X69920000Y-59250000D02*
X69920000Y-58920000D01*
X76460000Y-56510000D02*
X69920000Y-56510000D01*
X76460000Y-56840000D02*
X76460000Y-56510000D01*
X76460000Y-58920000D02*
X76460000Y-59250000D01*
X76460000Y-59250000D02*
X69920000Y-59250000D01*
%TD*%
%TO.C,U1*%
D27*
X79175000Y-56610000D02*
X89835000Y-56610000D01*
X89835000Y-67390000D01*
X79175000Y-67390000D01*
X79175000Y-56610000D01*
%TO.C,D5*%
X106080000Y-56290000D02*
X106080000Y-60710000D01*
X106080000Y-60710000D02*
X110920000Y-60710000D01*
X110920000Y-56290000D02*
X106080000Y-56290000D01*
X110920000Y-60710000D02*
X110920000Y-56290000D01*
%TO.C,D2*%
X112080000Y-64290000D02*
X112080000Y-68710000D01*
X112080000Y-68710000D02*
X116920000Y-68710000D01*
X116920000Y-64290000D02*
X112080000Y-64290000D01*
X116920000Y-68710000D02*
X116920000Y-64290000D01*
%TO.C,J2*%
X67900000Y-64915000D02*
X67900000Y-76085000D01*
X67900000Y-76085000D02*
X78710000Y-76085000D01*
X78710000Y-64915000D02*
X67900000Y-64915000D01*
X78710000Y-76085000D02*
X78710000Y-64915000D01*
%TO.C,R7*%
X101640000Y-61000000D02*
X111360000Y-61000000D01*
X111360000Y-64000000D01*
X101640000Y-64000000D01*
X101640000Y-61000000D01*
%TO.C,R5*%
X101520000Y-71500000D02*
X111240000Y-71500000D01*
X111240000Y-74500000D01*
X101520000Y-74500000D01*
X101520000Y-71500000D01*
%TO.C,D3*%
X112080000Y-69090000D02*
X112080000Y-73510000D01*
X112080000Y-73510000D02*
X116920000Y-73510000D01*
X116920000Y-69090000D02*
X112080000Y-69090000D01*
X116920000Y-73510000D02*
X116920000Y-69090000D01*
%TO.C,R3*%
X101520000Y-64500000D02*
X111240000Y-64500000D01*
X111240000Y-67500000D01*
X101520000Y-67500000D01*
X101520000Y-64500000D01*
%TO.C,R6*%
X101520000Y-75000000D02*
X111240000Y-75000000D01*
X111240000Y-78000000D01*
X101520000Y-78000000D01*
X101520000Y-75000000D01*
%TO.C,C1*%
X85294888Y-71750000D02*
G75*
G02*
X79794888Y-71750000I-2750000J0D01*
G01*
X79794888Y-71750000D02*
G75*
G02*
X85294888Y-71750000I2750000J0D01*
G01*
%TO.C,U2*%
X89860000Y-56380000D02*
X100520000Y-56380000D01*
X100520000Y-77320000D01*
X89860000Y-77320000D01*
X89860000Y-56380000D01*
%TO.C,R2*%
X68450000Y-60000000D02*
X78170000Y-60000000D01*
X78170000Y-63000000D01*
X68450000Y-63000000D01*
X68450000Y-60000000D01*
%TO.C,R4*%
X101520000Y-68000000D02*
X111240000Y-68000000D01*
X111240000Y-71000000D01*
X101520000Y-71000000D01*
X101520000Y-68000000D01*
%TO.C,D4*%
X112080000Y-73890000D02*
X112080000Y-78310000D01*
X112080000Y-78310000D02*
X116920000Y-78310000D01*
X116920000Y-73890000D02*
X112080000Y-73890000D01*
X116920000Y-78310000D02*
X116920000Y-73890000D01*
%TO.C,D1*%
X112080000Y-59490000D02*
X112080000Y-63910000D01*
X112080000Y-63910000D02*
X116920000Y-63910000D01*
X116920000Y-59490000D02*
X112080000Y-59490000D01*
X116920000Y-63910000D02*
X116920000Y-59490000D01*
%TO.C,R1*%
X68330000Y-56380000D02*
X78050000Y-56380000D01*
X78050000Y-59380000D01*
X68330000Y-59380000D01*
X68330000Y-56380000D01*
%TD*%
D28*
X83959819Y-62761904D02*
X84769342Y-62761904D01*
X84769342Y-62761904D02*
X84864580Y-62714285D01*
X84864580Y-62714285D02*
X84912200Y-62666666D01*
X84912200Y-62666666D02*
X84959819Y-62571428D01*
X84959819Y-62571428D02*
X84959819Y-62380952D01*
X84959819Y-62380952D02*
X84912200Y-62285714D01*
X84912200Y-62285714D02*
X84864580Y-62238095D01*
X84864580Y-62238095D02*
X84769342Y-62190476D01*
X84769342Y-62190476D02*
X83959819Y-62190476D01*
X84959819Y-61190476D02*
X84959819Y-61761904D01*
X84959819Y-61476190D02*
X83959819Y-61476190D01*
X83959819Y-61476190D02*
X84102676Y-61571428D01*
X84102676Y-61571428D02*
X84197914Y-61666666D01*
X84197914Y-61666666D02*
X84245533Y-61761904D01*
D26*
X107909524Y-58863855D02*
X107909524Y-58063855D01*
X107909524Y-58063855D02*
X108100000Y-58063855D01*
X108100000Y-58063855D02*
X108214286Y-58101950D01*
X108214286Y-58101950D02*
X108290476Y-58178140D01*
X108290476Y-58178140D02*
X108328571Y-58254331D01*
X108328571Y-58254331D02*
X108366667Y-58406712D01*
X108366667Y-58406712D02*
X108366667Y-58520998D01*
X108366667Y-58520998D02*
X108328571Y-58673379D01*
X108328571Y-58673379D02*
X108290476Y-58749569D01*
X108290476Y-58749569D02*
X108214286Y-58825760D01*
X108214286Y-58825760D02*
X108100000Y-58863855D01*
X108100000Y-58863855D02*
X107909524Y-58863855D01*
X109090476Y-58063855D02*
X108709524Y-58063855D01*
X108709524Y-58063855D02*
X108671428Y-58444807D01*
X108671428Y-58444807D02*
X108709524Y-58406712D01*
X108709524Y-58406712D02*
X108785714Y-58368617D01*
X108785714Y-58368617D02*
X108976190Y-58368617D01*
X108976190Y-58368617D02*
X109052381Y-58406712D01*
X109052381Y-58406712D02*
X109090476Y-58444807D01*
X109090476Y-58444807D02*
X109128571Y-58520998D01*
X109128571Y-58520998D02*
X109128571Y-58711474D01*
X109128571Y-58711474D02*
X109090476Y-58787664D01*
X109090476Y-58787664D02*
X109052381Y-58825760D01*
X109052381Y-58825760D02*
X108976190Y-58863855D01*
X108976190Y-58863855D02*
X108785714Y-58863855D01*
X108785714Y-58863855D02*
X108709524Y-58825760D01*
X108709524Y-58825760D02*
X108671428Y-58787664D01*
X113909524Y-66863855D02*
X113909524Y-66063855D01*
X113909524Y-66063855D02*
X114100000Y-66063855D01*
X114100000Y-66063855D02*
X114214286Y-66101950D01*
X114214286Y-66101950D02*
X114290476Y-66178140D01*
X114290476Y-66178140D02*
X114328571Y-66254331D01*
X114328571Y-66254331D02*
X114366667Y-66406712D01*
X114366667Y-66406712D02*
X114366667Y-66520998D01*
X114366667Y-66520998D02*
X114328571Y-66673379D01*
X114328571Y-66673379D02*
X114290476Y-66749569D01*
X114290476Y-66749569D02*
X114214286Y-66825760D01*
X114214286Y-66825760D02*
X114100000Y-66863855D01*
X114100000Y-66863855D02*
X113909524Y-66863855D01*
X114671428Y-66140045D02*
X114709524Y-66101950D01*
X114709524Y-66101950D02*
X114785714Y-66063855D01*
X114785714Y-66063855D02*
X114976190Y-66063855D01*
X114976190Y-66063855D02*
X115052381Y-66101950D01*
X115052381Y-66101950D02*
X115090476Y-66140045D01*
X115090476Y-66140045D02*
X115128571Y-66216236D01*
X115128571Y-66216236D02*
X115128571Y-66292426D01*
X115128571Y-66292426D02*
X115090476Y-66406712D01*
X115090476Y-66406712D02*
X114633333Y-66863855D01*
X114633333Y-66863855D02*
X115128571Y-66863855D01*
D28*
X69254819Y-70828333D02*
X69969104Y-70828333D01*
X69969104Y-70828333D02*
X70111961Y-70875952D01*
X70111961Y-70875952D02*
X70207200Y-70971190D01*
X70207200Y-70971190D02*
X70254819Y-71114047D01*
X70254819Y-71114047D02*
X70254819Y-71209285D01*
X69350057Y-70399761D02*
X69302438Y-70352142D01*
X69302438Y-70352142D02*
X69254819Y-70256904D01*
X69254819Y-70256904D02*
X69254819Y-70018809D01*
X69254819Y-70018809D02*
X69302438Y-69923571D01*
X69302438Y-69923571D02*
X69350057Y-69875952D01*
X69350057Y-69875952D02*
X69445295Y-69828333D01*
X69445295Y-69828333D02*
X69540533Y-69828333D01*
X69540533Y-69828333D02*
X69683390Y-69875952D01*
X69683390Y-69875952D02*
X70254819Y-70447380D01*
X70254819Y-70447380D02*
X70254819Y-69828333D01*
X106380952Y-65324819D02*
X105809524Y-65324819D01*
X106095238Y-65324819D02*
X106095238Y-64324819D01*
X106095238Y-64324819D02*
X106000000Y-64467676D01*
X106000000Y-64467676D02*
X105904762Y-64562914D01*
X105904762Y-64562914D02*
X105809524Y-64610533D01*
X106809524Y-65324819D02*
X106809524Y-64324819D01*
X106904762Y-64943866D02*
X107190476Y-65324819D01*
X107190476Y-64658152D02*
X106809524Y-65039104D01*
X106333333Y-62954819D02*
X106000000Y-62478628D01*
X105761905Y-62954819D02*
X105761905Y-61954819D01*
X105761905Y-61954819D02*
X106142857Y-61954819D01*
X106142857Y-61954819D02*
X106238095Y-62002438D01*
X106238095Y-62002438D02*
X106285714Y-62050057D01*
X106285714Y-62050057D02*
X106333333Y-62145295D01*
X106333333Y-62145295D02*
X106333333Y-62288152D01*
X106333333Y-62288152D02*
X106285714Y-62383390D01*
X106285714Y-62383390D02*
X106238095Y-62431009D01*
X106238095Y-62431009D02*
X106142857Y-62478628D01*
X106142857Y-62478628D02*
X105761905Y-62478628D01*
X106666667Y-61954819D02*
X107333333Y-61954819D01*
X107333333Y-61954819D02*
X106904762Y-62954819D01*
X106213333Y-73454819D02*
X105880000Y-72978628D01*
X105641905Y-73454819D02*
X105641905Y-72454819D01*
X105641905Y-72454819D02*
X106022857Y-72454819D01*
X106022857Y-72454819D02*
X106118095Y-72502438D01*
X106118095Y-72502438D02*
X106165714Y-72550057D01*
X106165714Y-72550057D02*
X106213333Y-72645295D01*
X106213333Y-72645295D02*
X106213333Y-72788152D01*
X106213333Y-72788152D02*
X106165714Y-72883390D01*
X106165714Y-72883390D02*
X106118095Y-72931009D01*
X106118095Y-72931009D02*
X106022857Y-72978628D01*
X106022857Y-72978628D02*
X105641905Y-72978628D01*
X107118095Y-72454819D02*
X106641905Y-72454819D01*
X106641905Y-72454819D02*
X106594286Y-72931009D01*
X106594286Y-72931009D02*
X106641905Y-72883390D01*
X106641905Y-72883390D02*
X106737143Y-72835771D01*
X106737143Y-72835771D02*
X106975238Y-72835771D01*
X106975238Y-72835771D02*
X107070476Y-72883390D01*
X107070476Y-72883390D02*
X107118095Y-72931009D01*
X107118095Y-72931009D02*
X107165714Y-73026247D01*
X107165714Y-73026247D02*
X107165714Y-73264342D01*
X107165714Y-73264342D02*
X107118095Y-73359580D01*
X107118095Y-73359580D02*
X107070476Y-73407200D01*
X107070476Y-73407200D02*
X106975238Y-73454819D01*
X106975238Y-73454819D02*
X106737143Y-73454819D01*
X106737143Y-73454819D02*
X106641905Y-73407200D01*
X106641905Y-73407200D02*
X106594286Y-73359580D01*
D26*
X113909524Y-71663855D02*
X113909524Y-70863855D01*
X113909524Y-70863855D02*
X114100000Y-70863855D01*
X114100000Y-70863855D02*
X114214286Y-70901950D01*
X114214286Y-70901950D02*
X114290476Y-70978140D01*
X114290476Y-70978140D02*
X114328571Y-71054331D01*
X114328571Y-71054331D02*
X114366667Y-71206712D01*
X114366667Y-71206712D02*
X114366667Y-71320998D01*
X114366667Y-71320998D02*
X114328571Y-71473379D01*
X114328571Y-71473379D02*
X114290476Y-71549569D01*
X114290476Y-71549569D02*
X114214286Y-71625760D01*
X114214286Y-71625760D02*
X114100000Y-71663855D01*
X114100000Y-71663855D02*
X113909524Y-71663855D01*
X114633333Y-70863855D02*
X115128571Y-70863855D01*
X115128571Y-70863855D02*
X114861905Y-71168617D01*
X114861905Y-71168617D02*
X114976190Y-71168617D01*
X114976190Y-71168617D02*
X115052381Y-71206712D01*
X115052381Y-71206712D02*
X115090476Y-71244807D01*
X115090476Y-71244807D02*
X115128571Y-71320998D01*
X115128571Y-71320998D02*
X115128571Y-71511474D01*
X115128571Y-71511474D02*
X115090476Y-71587664D01*
X115090476Y-71587664D02*
X115052381Y-71625760D01*
X115052381Y-71625760D02*
X114976190Y-71663855D01*
X114976190Y-71663855D02*
X114747619Y-71663855D01*
X114747619Y-71663855D02*
X114671428Y-71625760D01*
X114671428Y-71625760D02*
X114633333Y-71587664D01*
D28*
X106213333Y-66454819D02*
X105880000Y-65978628D01*
X105641905Y-66454819D02*
X105641905Y-65454819D01*
X105641905Y-65454819D02*
X106022857Y-65454819D01*
X106022857Y-65454819D02*
X106118095Y-65502438D01*
X106118095Y-65502438D02*
X106165714Y-65550057D01*
X106165714Y-65550057D02*
X106213333Y-65645295D01*
X106213333Y-65645295D02*
X106213333Y-65788152D01*
X106213333Y-65788152D02*
X106165714Y-65883390D01*
X106165714Y-65883390D02*
X106118095Y-65931009D01*
X106118095Y-65931009D02*
X106022857Y-65978628D01*
X106022857Y-65978628D02*
X105641905Y-65978628D01*
X106546667Y-65454819D02*
X107165714Y-65454819D01*
X107165714Y-65454819D02*
X106832381Y-65835771D01*
X106832381Y-65835771D02*
X106975238Y-65835771D01*
X106975238Y-65835771D02*
X107070476Y-65883390D01*
X107070476Y-65883390D02*
X107118095Y-65931009D01*
X107118095Y-65931009D02*
X107165714Y-66026247D01*
X107165714Y-66026247D02*
X107165714Y-66264342D01*
X107165714Y-66264342D02*
X107118095Y-66359580D01*
X107118095Y-66359580D02*
X107070476Y-66407200D01*
X107070476Y-66407200D02*
X106975238Y-66454819D01*
X106975238Y-66454819D02*
X106689524Y-66454819D01*
X106689524Y-66454819D02*
X106594286Y-66407200D01*
X106594286Y-66407200D02*
X106546667Y-66359580D01*
X106213333Y-76954819D02*
X105880000Y-76478628D01*
X105641905Y-76954819D02*
X105641905Y-75954819D01*
X105641905Y-75954819D02*
X106022857Y-75954819D01*
X106022857Y-75954819D02*
X106118095Y-76002438D01*
X106118095Y-76002438D02*
X106165714Y-76050057D01*
X106165714Y-76050057D02*
X106213333Y-76145295D01*
X106213333Y-76145295D02*
X106213333Y-76288152D01*
X106213333Y-76288152D02*
X106165714Y-76383390D01*
X106165714Y-76383390D02*
X106118095Y-76431009D01*
X106118095Y-76431009D02*
X106022857Y-76478628D01*
X106022857Y-76478628D02*
X105641905Y-76478628D01*
X107070476Y-75954819D02*
X106880000Y-75954819D01*
X106880000Y-75954819D02*
X106784762Y-76002438D01*
X106784762Y-76002438D02*
X106737143Y-76050057D01*
X106737143Y-76050057D02*
X106641905Y-76192914D01*
X106641905Y-76192914D02*
X106594286Y-76383390D01*
X106594286Y-76383390D02*
X106594286Y-76764342D01*
X106594286Y-76764342D02*
X106641905Y-76859580D01*
X106641905Y-76859580D02*
X106689524Y-76907200D01*
X106689524Y-76907200D02*
X106784762Y-76954819D01*
X106784762Y-76954819D02*
X106975238Y-76954819D01*
X106975238Y-76954819D02*
X107070476Y-76907200D01*
X107070476Y-76907200D02*
X107118095Y-76859580D01*
X107118095Y-76859580D02*
X107165714Y-76764342D01*
X107165714Y-76764342D02*
X107165714Y-76526247D01*
X107165714Y-76526247D02*
X107118095Y-76431009D01*
X107118095Y-76431009D02*
X107070476Y-76383390D01*
X107070476Y-76383390D02*
X106975238Y-76335771D01*
X106975238Y-76335771D02*
X106784762Y-76335771D01*
X106784762Y-76335771D02*
X106689524Y-76383390D01*
X106689524Y-76383390D02*
X106641905Y-76431009D01*
X106641905Y-76431009D02*
X106594286Y-76526247D01*
X73143333Y-61954819D02*
X72810000Y-61478628D01*
X72571905Y-61954819D02*
X72571905Y-60954819D01*
X72571905Y-60954819D02*
X72952857Y-60954819D01*
X72952857Y-60954819D02*
X73048095Y-61002438D01*
X73048095Y-61002438D02*
X73095714Y-61050057D01*
X73095714Y-61050057D02*
X73143333Y-61145295D01*
X73143333Y-61145295D02*
X73143333Y-61288152D01*
X73143333Y-61288152D02*
X73095714Y-61383390D01*
X73095714Y-61383390D02*
X73048095Y-61431009D01*
X73048095Y-61431009D02*
X72952857Y-61478628D01*
X72952857Y-61478628D02*
X72571905Y-61478628D01*
X73524286Y-61050057D02*
X73571905Y-61002438D01*
X73571905Y-61002438D02*
X73667143Y-60954819D01*
X73667143Y-60954819D02*
X73905238Y-60954819D01*
X73905238Y-60954819D02*
X74000476Y-61002438D01*
X74000476Y-61002438D02*
X74048095Y-61050057D01*
X74048095Y-61050057D02*
X74095714Y-61145295D01*
X74095714Y-61145295D02*
X74095714Y-61240533D01*
X74095714Y-61240533D02*
X74048095Y-61383390D01*
X74048095Y-61383390D02*
X73476667Y-61954819D01*
X73476667Y-61954819D02*
X74095714Y-61954819D01*
X106213333Y-69954819D02*
X105880000Y-69478628D01*
X105641905Y-69954819D02*
X105641905Y-68954819D01*
X105641905Y-68954819D02*
X106022857Y-68954819D01*
X106022857Y-68954819D02*
X106118095Y-69002438D01*
X106118095Y-69002438D02*
X106165714Y-69050057D01*
X106165714Y-69050057D02*
X106213333Y-69145295D01*
X106213333Y-69145295D02*
X106213333Y-69288152D01*
X106213333Y-69288152D02*
X106165714Y-69383390D01*
X106165714Y-69383390D02*
X106118095Y-69431009D01*
X106118095Y-69431009D02*
X106022857Y-69478628D01*
X106022857Y-69478628D02*
X105641905Y-69478628D01*
X107070476Y-69288152D02*
X107070476Y-69954819D01*
X106832381Y-68907200D02*
X106594286Y-69621485D01*
X106594286Y-69621485D02*
X107213333Y-69621485D01*
D26*
X113909524Y-76463855D02*
X113909524Y-75663855D01*
X113909524Y-75663855D02*
X114100000Y-75663855D01*
X114100000Y-75663855D02*
X114214286Y-75701950D01*
X114214286Y-75701950D02*
X114290476Y-75778140D01*
X114290476Y-75778140D02*
X114328571Y-75854331D01*
X114328571Y-75854331D02*
X114366667Y-76006712D01*
X114366667Y-76006712D02*
X114366667Y-76120998D01*
X114366667Y-76120998D02*
X114328571Y-76273379D01*
X114328571Y-76273379D02*
X114290476Y-76349569D01*
X114290476Y-76349569D02*
X114214286Y-76425760D01*
X114214286Y-76425760D02*
X114100000Y-76463855D01*
X114100000Y-76463855D02*
X113909524Y-76463855D01*
X115052381Y-75930521D02*
X115052381Y-76463855D01*
X114861905Y-75625760D02*
X114671428Y-76197188D01*
X114671428Y-76197188D02*
X115166667Y-76197188D01*
X113909524Y-62063855D02*
X113909524Y-61263855D01*
X113909524Y-61263855D02*
X114100000Y-61263855D01*
X114100000Y-61263855D02*
X114214286Y-61301950D01*
X114214286Y-61301950D02*
X114290476Y-61378140D01*
X114290476Y-61378140D02*
X114328571Y-61454331D01*
X114328571Y-61454331D02*
X114366667Y-61606712D01*
X114366667Y-61606712D02*
X114366667Y-61720998D01*
X114366667Y-61720998D02*
X114328571Y-61873379D01*
X114328571Y-61873379D02*
X114290476Y-61949569D01*
X114290476Y-61949569D02*
X114214286Y-62025760D01*
X114214286Y-62025760D02*
X114100000Y-62063855D01*
X114100000Y-62063855D02*
X113909524Y-62063855D01*
X115128571Y-62063855D02*
X114671428Y-62063855D01*
X114900000Y-62063855D02*
X114900000Y-61263855D01*
X114900000Y-61263855D02*
X114823809Y-61378140D01*
X114823809Y-61378140D02*
X114747619Y-61454331D01*
X114747619Y-61454331D02*
X114671428Y-61492426D01*
D28*
X73023333Y-58334819D02*
X72690000Y-57858628D01*
X72451905Y-58334819D02*
X72451905Y-57334819D01*
X72451905Y-57334819D02*
X72832857Y-57334819D01*
X72832857Y-57334819D02*
X72928095Y-57382438D01*
X72928095Y-57382438D02*
X72975714Y-57430057D01*
X72975714Y-57430057D02*
X73023333Y-57525295D01*
X73023333Y-57525295D02*
X73023333Y-57668152D01*
X73023333Y-57668152D02*
X72975714Y-57763390D01*
X72975714Y-57763390D02*
X72928095Y-57811009D01*
X72928095Y-57811009D02*
X72832857Y-57858628D01*
X72832857Y-57858628D02*
X72451905Y-57858628D01*
X73975714Y-58334819D02*
X73404286Y-58334819D01*
X73690000Y-58334819D02*
X73690000Y-57334819D01*
X73690000Y-57334819D02*
X73594762Y-57477676D01*
X73594762Y-57477676D02*
X73499524Y-57572914D01*
X73499524Y-57572914D02*
X73404286Y-57620533D01*
%TO.C,U1*%
D29*
X81330000Y-57920000D02*
X82330000Y-56920000D01*
X81330000Y-67080000D02*
X81330000Y-57920000D01*
X82330000Y-56920000D02*
X87680000Y-56920000D01*
X87680000Y-56920000D02*
X87680000Y-67080000D01*
X87680000Y-67080000D02*
X81330000Y-67080000D01*
X79425000Y-56860000D02*
X89585000Y-56860000D01*
X89585000Y-67140000D01*
X79425000Y-67140000D01*
X79425000Y-56860000D01*
%TO.C,D5*%
X107000000Y-57333810D02*
X107000000Y-59666190D01*
X107000000Y-57333810D02*
G75*
G02*
X107000000Y-59666190I1500000J-1166190D01*
G01*
X110000000Y-58500000D02*
G75*
G02*
X107000000Y-58500000I-1500000J0D01*
G01*
X107000000Y-58500000D02*
G75*
G02*
X110000000Y-58500000I1500000J0D01*
G01*
%TO.C,D2*%
X116000000Y-67666190D02*
X116000000Y-65333810D01*
X116000000Y-67666190D02*
G75*
G02*
X116000000Y-65333810I-1500000J1166190D01*
G01*
X116000000Y-66500000D02*
G75*
G02*
X113000000Y-66500000I-1500000J0D01*
G01*
X113000000Y-66500000D02*
G75*
G02*
X116000000Y-66500000I1500000J0D01*
G01*
%TO.C,J2*%
X68400000Y-65915000D02*
X68900000Y-65415000D01*
X68400000Y-75575000D02*
X68400000Y-65915000D01*
X68900000Y-65415000D02*
X68900000Y-75575000D01*
X68900000Y-65415000D02*
X78200000Y-65415000D01*
X70400000Y-65415000D02*
X70400000Y-75575000D01*
X73955000Y-69093000D02*
X71862000Y-67000000D01*
X73955000Y-74173000D02*
X71862000Y-72080000D01*
X74138000Y-68910000D02*
X72045000Y-66817000D01*
X74138000Y-73990000D02*
X72045000Y-71897000D01*
X75300000Y-65415000D02*
X75300000Y-75575000D01*
X78200000Y-65415000D02*
X78200000Y-75575000D01*
X78200000Y-75575000D02*
X68400000Y-75575000D01*
X74500000Y-67955000D02*
G75*
G02*
X71500000Y-67955000I-1500000J0D01*
G01*
X71500000Y-67955000D02*
G75*
G02*
X74500000Y-67955000I1500000J0D01*
G01*
X74500000Y-73035000D02*
G75*
G02*
X71500000Y-73035000I-1500000J0D01*
G01*
X71500000Y-73035000D02*
G75*
G02*
X74500000Y-73035000I1500000J0D01*
G01*
%TO.C,R7*%
X102690000Y-62500000D02*
X103350000Y-62500000D01*
X110310000Y-62500000D02*
X109650000Y-62500000D01*
X103350000Y-61250000D02*
X109650000Y-61250000D01*
X109650000Y-63750000D01*
X103350000Y-63750000D01*
X103350000Y-61250000D01*
%TO.C,R5*%
X102570000Y-73000000D02*
X103230000Y-73000000D01*
X110190000Y-73000000D02*
X109530000Y-73000000D01*
X103230000Y-71750000D02*
X109530000Y-71750000D01*
X109530000Y-74250000D01*
X103230000Y-74250000D01*
X103230000Y-71750000D01*
%TO.C,D3*%
X116000000Y-72466190D02*
X116000000Y-70133810D01*
X116000000Y-72466190D02*
G75*
G02*
X116000000Y-70133810I-1500000J1166190D01*
G01*
X116000000Y-71300000D02*
G75*
G02*
X113000000Y-71300000I-1500000J0D01*
G01*
X113000000Y-71300000D02*
G75*
G02*
X116000000Y-71300000I1500000J0D01*
G01*
%TO.C,R3*%
X102570000Y-66000000D02*
X103230000Y-66000000D01*
X110190000Y-66000000D02*
X109530000Y-66000000D01*
X103230000Y-64750000D02*
X109530000Y-64750000D01*
X109530000Y-67250000D01*
X103230000Y-67250000D01*
X103230000Y-64750000D01*
%TO.C,R6*%
X102570000Y-76500000D02*
X103230000Y-76500000D01*
X110190000Y-76500000D02*
X109530000Y-76500000D01*
X103230000Y-75250000D02*
X109530000Y-75250000D01*
X109530000Y-77750000D01*
X103230000Y-77750000D01*
X103230000Y-75250000D01*
%TO.C,C1*%
X80411283Y-70662500D02*
X80911283Y-70662500D01*
X80661283Y-70412500D02*
X80661283Y-70912500D01*
X85044888Y-71750000D02*
G75*
G02*
X80044888Y-71750000I-2500000J0D01*
G01*
X80044888Y-71750000D02*
G75*
G02*
X85044888Y-71750000I2500000J0D01*
G01*
%TO.C,U2*%
X92015000Y-56690000D02*
X98365000Y-56690000D01*
X92015000Y-77010000D02*
X92015000Y-56690000D01*
X97365000Y-77010000D02*
X92015000Y-77010000D01*
X98365000Y-56690000D02*
X98365000Y-76010000D01*
X98365000Y-76010000D02*
X97365000Y-77010000D01*
X90110000Y-56630000D02*
X100270000Y-56630000D01*
X100270000Y-77070000D01*
X90110000Y-77070000D01*
X90110000Y-56630000D01*
%TO.C,R2*%
X69500000Y-61500000D02*
X70160000Y-61500000D01*
X77120000Y-61500000D02*
X76460000Y-61500000D01*
X70160000Y-60250000D02*
X76460000Y-60250000D01*
X76460000Y-62750000D01*
X70160000Y-62750000D01*
X70160000Y-60250000D01*
%TO.C,R4*%
X102570000Y-69500000D02*
X103230000Y-69500000D01*
X110190000Y-69500000D02*
X109530000Y-69500000D01*
X103230000Y-68250000D02*
X109530000Y-68250000D01*
X109530000Y-70750000D01*
X103230000Y-70750000D01*
X103230000Y-68250000D01*
%TO.C,D4*%
X116000000Y-77266190D02*
X116000000Y-74933810D01*
X116000000Y-77266190D02*
G75*
G02*
X116000000Y-74933810I-1500000J1166190D01*
G01*
X116000000Y-76100000D02*
G75*
G02*
X113000000Y-76100000I-1500000J0D01*
G01*
X113000000Y-76100000D02*
G75*
G02*
X116000000Y-76100000I1500000J0D01*
G01*
%TO.C,D1*%
X116000000Y-62866190D02*
X116000000Y-60533810D01*
X116000000Y-62866190D02*
G75*
G02*
X116000000Y-60533810I-1500000J1166190D01*
G01*
X116000000Y-61700000D02*
G75*
G02*
X113000000Y-61700000I-1500000J0D01*
G01*
X113000000Y-61700000D02*
G75*
G02*
X116000000Y-61700000I1500000J0D01*
G01*
%TO.C,R1*%
X69380000Y-57880000D02*
X70040000Y-57880000D01*
X77000000Y-57880000D02*
X76340000Y-57880000D01*
X70040000Y-56630000D02*
X76340000Y-56630000D01*
X76340000Y-59130000D01*
X70040000Y-59130000D01*
X70040000Y-56630000D01*
%TD*%
D30*
X67000000Y-55000000D02*
X118150000Y-55000000D01*
X118150000Y-79000000D01*
X67000000Y-79000000D01*
X67000000Y-55000000D01*
M02*
